<?xml version="1.0" encoding="UTF-8" standalone="no"?>
<!DOCTYPE svg PUBLIC "-//W3C//DTD SVG 1.1//EN" "http://www.w3.org/Graphics/SVG/1.1/DTD/svg11.dtd">
<svg xmlns="http://www.w3.org/2000/svg" version="1.1" viewBox="0.00 0.00 1656.00 1656.00">
<path fill="#070707" d="
  M 1656.00 1451.73
  L 1656.00 1653.90
  Q 1655.56 1654.55 1656.00 1655.25
  L 1656.00 1656.00
  L 1655.32 1656.00
  Q 1654.61 1655.58 1653.98 1656.00
  L 0.00 1656.00
  L 0.00 1428.64
  Q 19.47 1388.17 48.44 1354.20
  Q 82.23 1314.60 129.15 1291.41
  Q 194.73 1258.99 259.50 1225.16
  Q 304.67 1201.57 323.27 1192.31
  Q 362.08 1172.99 387.44 1160.21
  C 429.75 1138.88 475.37 1113.51 514.43 1090.81
  C 524.45 1084.99 530.27 1082.09 535.62 1073.89
  C 536.68 1072.28 537.07 1070.40 536.59 1068.31
  Q 536.00 1065.76 535.07 1058.72
  Q 530.66 1025.37 549.31 1000.61
  Q 554.18 994.15 554.45 992.61
  C 555.66 985.59 554.56 982.57 550.43 976.03
  Q 545.16 967.66 541.07 960.95
  Q 527.94 939.40 519.57 918.42
  C 514.00 904.48 511.93 890.94 510.27 876.10
  Q 505.88 837.06 502.10 816.29
  C 501.46 812.74 498.44 812.02 494.88 811.61
  Q 478.31 809.70 466.42 799.84
  Q 451.17 787.20 451.23 767.22
  C 451.25 759.31 450.82 751.62 450.25 746.00
  Q 450.02 743.83 448.10 737.30
  A 4.80 4.51 24.8 0 0 447.75 736.43
  Q 442.82 726.99 441.74 718.50
  Q 440.39 707.93 442.95 693.74
  Q 446.27 675.26 452.20 649.99
  C 452.82 647.32 452.40 644.73 451.59 641.81
  Q 448.75 631.59 443.28 612.23
  C 439.35 598.31 441.91 586.26 453.57 577.56
  C 460.65 572.27 467.88 573.04 475.41 576.74
  A 0.95 0.94 11.9 0 0 476.77 575.86
  Q 476.67 572.77 475.96 566.87
  Q 470.56 522.05 462.65 438.03
  Q 461.78 428.84 460.72 406.97
  Q 459.43 380.54 457.95 335.97
  Q 457.47 321.74 457.42 319.65
  A 1.44 1.44 0.0 0 0 454.59 319.32
  Q 449.51 338.36 448.65 341.37
  Q 448.58 341.61 448.32 341.76
  A 1.00 0.98 -21.1 0 1 446.85 341.13
  Q 441.50 316.27 448.90 293.00
  C 452.50 281.71 460.33 271.44 465.19 261.99
  Q 465.88 260.64 466.29 259.12
  C 467.67 254.08 469.62 248.17 469.21 246.97
  A 2.06 2.05 -31.8 0 0 465.82 246.18
  Q 460.36 251.62 455.41 256.72
  A 0.86 0.84 44.5 0 1 454.21 256.72
  Q 453.81 256.33 453.98 255.74
  C 455.74 249.32 456.22 243.04 456.37 235.05
  C 456.65 220.58 463.76 210.04 473.87 200.12
  Q 492.79 181.57 502.30 172.04
  Q 505.97 168.36 506.58 165.09
  C 509.26 150.68 521.88 141.95 534.35 135.62
  Q 542.20 131.64 553.56 126.58
  C 560.68 123.42 566.63 118.36 573.75 112.10
  C 584.59 102.58 596.14 94.76 609.35 88.63
  Q 615.90 85.59 623.10 82.82
  A 11.54 11.25 -75.0 0 0 626.45 80.83
  Q 631.80 76.26 638.44 71.22
  Q 662.55 52.88 692.52 44.04
  Q 732.29 32.29 771.75 32.97
  C 795.97 33.39 819.65 37.23 842.38 45.61
  C 888.58 62.65 932.39 101.81 934.33 154.45
  Q 934.38 155.67 933.74 156.20
  A 1.07 1.04 -27.1 0 1 932.03 155.67
  Q 929.91 146.91 926.32 137.15
  Q 917.96 114.43 901.36 98.32
  C 882.13 79.66 857.37 66.94 832.51 57.95
  Q 803.90 47.61 772.21 48.79
  Q 751.05 49.58 729.17 52.19
  A 1.01 1.01 0.0 0 0 728.29 53.34
  L 728.30 53.39
  A 1.20 1.19 85.6 0 0 729.49 54.42
  Q 738.11 54.37 757.23 56.29
  Q 785.32 59.09 810.20 70.25
  C 852.71 89.30 879.99 132.67 885.42 178.25
  Q 886.45 186.88 885.66 197.74
  C 883.64 225.84 869.94 252.35 841.16 260.36
  Q 840.05 260.67 839.29 260.62
  A 0.76 0.76 0.0 0 1 838.76 259.36
  Q 843.73 253.60 846.64 249.65
  Q 864.28 225.65 865.44 197.81
  C 866.52 171.91 856.34 144.01 840.73 122.82
  C 824.32 100.55 798.50 85.90 771.27 79.89
  A 0.17 0.17 0.0 0 0 771.06 80.02
  L 770.79 81.34
  A 0.44 0.43 -74.1 0 0 771.06 81.83
  C 805.19 95.52 828.06 123.85 838.03 158.74
  C 847.41 191.60 842.12 224.86 819.90 250.62
  Q 813.72 257.79 805.92 261.42
  Q 804.97 261.86 803.84 261.75
  A 0.84 0.84 0.0 0 1 803.26 260.40
  Q 813.51 247.12 817.79 231.03
  C 822.37 213.75 825.39 194.98 823.16 177.01
  C 820.18 152.87 806.40 130.22 787.68 114.57
  C 771.84 101.33 752.83 91.46 732.97 85.76
  Q 723.31 82.99 709.06 81.61
  Q 689.47 79.71 668.25 80.27
  Q 666.92 80.30 664.97 80.85
  A 0.21 0.21 0.0 0 0 664.93 81.24
  Q 666.94 82.29 668.26 82.51
  Q 673.89 83.48 684.39 84.63
  Q 721.52 88.69 751.27 111.45
  C 784.50 136.86 805.30 175.90 803.38 218.12
  A 0.71 0.71 0.0 0 0 804.37 218.80
  Q 805.16 218.44 805.37 217.63
  Q 811.63 193.41 805.02 169.71
  Q 800.85 154.75 791.31 140.53
  A 0.62 0.61 57.7 0 1 791.50 139.66
  L 791.53 139.65
  A 0.68 0.68 0.0 0 1 792.44 139.83
  C 807.42 159.90 815.19 183.24 813.36 208.35
  Q 812.02 226.69 805.63 243.09
  C 802.17 251.94 796.29 259.58 788.21 264.20
  A 2.10 2.10 0.0 0 1 787.18 264.47
  Q 783.45 264.40 782.43 261.04
  Q 780.94 256.08 780.53 249.24
  Q 779.85 237.86 779.37 229.78
  C 777.29 194.57 767.39 160.73 740.88 135.98
  C 718.64 115.22 689.05 104.88 658.75 104.54
  Q 626.90 104.19 596.72 112.88
  A 0.87 0.87 0.0 0 0 596.88 114.59
  Q 598.03 114.69 599.00 114.61
  Q 615.17 113.14 630.75 114.54
  Q 680.05 118.95 718.52 148.75
  C 753.90 176.16 772.80 222.67 778.79 265.86
  C 778.93 266.82 779.29 267.53 778.97 268.45
  A 1.55 1.48 -60.4 0 1 776.57 269.17
  C 766.95 260.88 761.87 248.80 758.45 236.55
  Q 755.04 224.31 752.56 215.19
  Q 747.56 196.83 738.38 180.63
  C 720.92 149.79 692.18 131.42 657.58 126.44
  Q 603.41 118.64 552.23 140.24
  A 1.41 1.40 -15.4 0 0 551.38 141.73
  L 551.39 141.77
  A 0.94 0.94 0.0 0 0 552.57 142.54
  Q 565.77 138.83 568.26 138.25
  C 598.89 131.13 629.28 133.40 658.61 145.33
  Q 703.40 163.56 730.28 205.13
  C 742.77 224.45 752.69 244.96 762.13 265.58
  A 1.33 1.32 74.1 0 1 761.09 267.45
  Q 760.51 267.52 759.27 266.98
  Q 742.25 259.54 731.15 242.35
  Q 725.20 233.12 720.79 225.37
  Q 713.98 213.40 710.42 208.36
  Q 687.89 176.49 650.71 161.50
  Q 649.61 161.06 648.87 161.56
  A 1.22 1.19 43.9 0 0 648.93 163.57
  C 668.58 175.97 685.14 190.71 698.68 210.05
  Q 719.67 240.03 741.05 266.67
  A 0.61 0.60 76.8 0 1 740.45 267.64
  Q 733.60 266.18 726.51 264.98
  C 718.99 263.71 712.82 263.32 704.13 263.33
  Q 676.33 263.36 648.39 258.36
  Q 640.88 257.02 619.77 252.24
  Q 610.09 250.05 597.53 249.04
  A 0.77 0.76 -89.4 0 0 596.71 249.85
  L 596.72 249.92
  A 1.12 1.11 3.7 0 0 597.63 250.95
  Q 612.85 253.80 625.17 261.85
  Q 625.32 261.95 625.49 262.22
  A 1.17 1.16 -14.2 0 1 624.42 264.01
  Q 615.29 263.32 608.27 263.37
  Q 574.85 263.60 550.75 283.51
  C 528.97 301.51 516.10 330.20 508.27 357.01
  Q 505.88 365.18 497.86 392.56
  A 0.39 0.38 -72.1 0 0 498.10 393.04
  Q 500.06 393.70 500.52 391.94
  A 0.46 0.46 0.0 0 1 501.36 391.83
  Q 502.78 394.32 502.27 397.00
  Q 499.38 412.20 499.48 425.19
  A 19.97 19.65 51.2 0 1 499.07 429.30
  L 490.60 470.27
  A 1.10 1.10 0.0 0 0 491.46 471.58
  L 491.87 471.67
  A 1.14 1.13 14.2 0 0 493.19 470.89
  L 502.92 439.01
  A 0.40 0.39 55.8 0 1 503.69 439.16
  Q 503.17 446.21 502.08 453.86
  Q 500.16 467.31 497.78 483.50
  Q 496.75 490.48 494.89 509.38
  Q 494.26 515.83 494.57 533.13
  C 494.92 552.96 494.97 571.04 494.08 587.51
  Q 493.95 589.87 493.94 590.01
  Q 493.43 598.12 492.91 625.00
  Q 492.32 655.75 493.97 675.83
  Q 495.63 695.99 500.15 719.82
  Q 506.86 755.17 508.41 763.30
  Q 511.31 778.48 513.06 793.18
  Q 518.58 839.74 524.73 883.52
  Q 528.17 908.06 539.82 930.96
  Q 551.58 954.09 565.81 972.68
  Q 615.10 1037.07 677.57 1085.44
  Q 693.78 1097.99 713.39 1102.84
  Q 724.05 1105.48 734.19 1106.35
  C 762.75 1108.79 790.72 1110.30 820.49 1109.33
  Q 846.29 1108.49 869.05 1099.01
  Q 886.02 1091.94 903.37 1079.10
  Q 941.96 1050.54 976.36 1015.86
  Q 998.29 993.76 1015.59 971.38
  Q 1031.57 950.72 1044.21 924.23
  Q 1046.84 918.72 1049.86 908.41
  C 1055.12 890.43 1058.11 872.90 1061.06 852.36
  Q 1073.03 768.93 1080.33 717.31
  Q 1083.51 694.80 1086.06 666.81
  C 1086.88 657.71 1087.40 644.87 1087.35 634.39
  Q 1087.22 607.34 1087.18 579.61
  A 0.88 0.88 0.0 0 1 1088.31 578.76
  L 1088.71 578.89
  A 0.95 0.95 0.0 0 1 1089.39 579.80
  L 1089.39 584.04
  A 1.65 1.65 0.0 0 0 1091.11 585.69
  Q 1095.23 585.52 1094.22 581.77
  Q 1089.94 565.85 1084.34 549.64
  A 0.95 0.95 0.0 0 1 1085.24 548.38
  L 1085.92 548.38
  A 1.92 1.91 -11.3 0 1 1087.69 549.56
  L 1097.88 574.27
  A 0.80 0.78 81.6 0 0 1098.52 574.76
  Q 1099.88 574.93 1099.98 573.82
  Q 1101.79 554.53 1104.48 543.13
  Q 1106.24 535.69 1107.12 527.62
  Q 1109.65 504.44 1111.96 478.99
  Q 1113.46 462.51 1112.23 449.25
  Q 1111.01 436.19 1110.24 422.50
  Q 1109.89 416.10 1109.12 409.98
  Q 1108.38 404.06 1106.84 397.62
  Q 1098.18 361.39 1073.93 330.60
  Q 1072.62 328.94 1071.25 329.29
  A 1.46 1.43 -20.3 0 0 1070.30 331.32
  Q 1087.90 366.82 1101.55 406.46
  Q 1103.72 412.78 1103.33 418.09
  Q 1103.30 418.59 1103.19 418.73
  A 0.90 0.89 53.3 0 1 1101.62 418.50
  Q 1095.91 402.22 1089.22 387.52
  C 1082.94 373.71 1072.59 358.94 1066.29 347.71
  Q 1057.96 332.87 1055.39 326.62
  Q 1051.81 317.91 1048.25 309.24
  Q 1040.45 290.29 1023.66 279.41
  A 1.06 1.06 0.0 0 1 1023.58 277.68
  L 1024.39 277.05
  A 1.43 1.42 41.7 0 1 1026.04 276.96
  Q 1084.60 313.44 1111.62 376.10
  Q 1111.76 376.42 1112.14 376.60
  A 0.94 0.92 -77.8 0 0 1113.45 375.73
  C 1113.40 334.98 1086.34 300.95 1050.83 283.40
  Q 1031.25 273.73 1010.15 265.41
  A 2.85 2.85 0.0 0 1 1008.39 262.28
  L 1008.41 262.16
  A 1.97 1.96 14.9 0 1 1011.02 260.65
  C 1032.68 268.56 1051.46 276.41 1071.09 287.65
  Q 1097.37 302.71 1116.27 327.21
  Q 1116.93 328.06 1117.80 327.79
  A 1.33 1.26 -18.8 0 0 1118.68 326.13
  C 1111.24 306.06 1099.55 291.11 1081.81 278.76
  C 1061.57 264.65 1036.56 256.47 1011.36 256.65
  C 1000.31 256.73 989.69 257.02 980.03 255.47
  Q 978.17 255.18 977.54 254.34
  A 1.53 1.52 60.6 0 1 978.19 252.00
  C 995.06 245.28 1012.25 234.70 1022.66 219.73
  C 1040.05 194.72 1042.28 161.14 1029.06 133.65
  Q 1028.79 133.08 1028.23 133.15
  A 1.30 1.23 -10.9 0 0 1027.11 134.71
  C 1032.56 153.99 1028.08 174.51 1021.80 193.08
  C 1012.31 221.17 988.31 242.85 960.71 252.28
  Q 960.06 252.51 958.93 251.99
  A 1.40 1.39 -49.3 0 1 958.75 249.55
  Q 976.71 237.86 995.94 223.19
  Q 996.67 222.63 1000.55 219.05
  Q 1022.08 199.17 1023.49 170.00
  Q 1024.31 153.05 1019.73 136.57
  C 1013.09 112.71 997.19 90.96 974.59 80.68
  Q 973.82 80.33 973.52 80.38
  A 1.51 1.51 0.0 0 0 972.52 82.71
  Q 976.64 88.81 978.67 92.08
  C 991.82 113.19 999.32 138.21 998.50 162.83
  C 997.58 190.75 985.40 219.05 964.05 236.93
  Q 949.47 249.15 931.06 255.03
  A 1.17 1.17 0.0 0 1 930.69 255.09
  L 930.19 255.09
  A 0.88 0.88 0.0 0 1 929.58 253.57
  Q 943.48 240.30 953.14 230.90
  Q 965.64 218.74 974.59 205.13
  C 983.03 192.27 987.47 176.15 988.03 159.58
  Q 989.09 128.45 974.29 102.17
  C 959.54 75.98 934.45 57.18 905.47 47.78
  Q 899.65 45.89 894.62 45.05
  A 0.87 0.87 0.0 0 0 894.03 46.65
  C 905.17 53.36 918.99 61.81 929.10 69.90
  C 963.06 97.10 980.29 141.14 967.54 183.51
  A 0.19 0.18 -33.5 0 1 967.18 183.44
  Q 969.74 162.79 965.93 143.28
  C 957.58 100.55 926.71 73.40 890.56 52.64
  C 865.88 38.48 838.72 30.18 810.48 27.59
  A 0.31 0.31 0.0 0 1 810.20 27.28
  L 810.20 26.05
  A 0.25 0.25 0.0 0 1 810.44 25.80
  C 840.89 24.59 870.71 26.69 900.10 33.14
  Q 973.37 49.21 1024.16 103.80
  C 1045.92 127.19 1065.80 162.52 1059.05 195.26
  Q 1057.33 203.62 1055.88 211.78
  A 0.37 0.36 -1.1 0 0 1056.32 212.20
  Q 1057.48 211.94 1058.00 211.19
  Q 1079.37 180.65 1069.60 143.65
  A 0.37 0.36 64.2 0 1 1069.72 143.29
  L 1070.65 142.56
  A 0.20 0.20 0.0 0 1 1070.95 142.64
  Q 1077.99 159.29 1078.19 175.75
  Q 1078.61 210.29 1051.67 231.13
  Q 1051.21 231.49 1051.23 232.49
  A 1.12 1.11 -10.9 0 0 1052.74 233.51
  C 1065.74 228.58 1075.67 217.12 1080.32 204.21
  A 1.17 1.16 17.8 0 1 1081.73 203.49
  L 1081.76 203.50
  A 1.05 1.04 15.3 0 1 1082.49 204.77
  Q 1078.13 221.44 1065.97 233.44
  A 1.79 1.79 0.0 0 0 1066.78 236.44
  C 1072.95 238.03 1079.53 239.82 1084.88 242.02
  Q 1123.23 257.84 1139.75 296.68
  A 0.76 0.76 0.0 0 1 1138.43 297.42
  Q 1127.78 282.62 1110.32 275.72
  A 0.89 0.88 -69.9 0 0 1109.16 276.27
  Q 1108.88 277.07 1109.39 277.72
  C 1127.19 300.36 1146.26 328.13 1146.71 357.77
  A 1.14 1.13 -19.8 0 1 1146.28 358.68
  L 1145.83 359.02
  A 1.90 1.89 59.6 0 1 1142.90 358.25
  L 1136.08 341.74
  A 1.31 1.31 0.0 0 0 1133.57 342.08
  Q 1133.45 343.03 1133.43 344.75
  C 1133.22 357.84 1133.55 369.85 1132.24 383.06
  Q 1128.02 425.79 1125.98 449.43
  Q 1120.85 508.84 1116.83 567.40
  A 1.86 1.86 0.0 0 0 1118.78 569.38
  Q 1123.18 569.13 1126.51 569.16
  C 1136.89 569.25 1145.60 573.01 1149.52 582.49
  C 1153.10 591.12 1152.96 600.34 1152.29 610.50
  Q 1152.25 611.18 1149.01 640.19
  Q 1147.48 653.84 1148.39 667.20
  C 1148.88 674.31 1150.71 679.71 1152.49 687.51
  C 1155.42 700.34 1155.70 714.90 1153.05 728.35
  C 1151.85 734.46 1150.84 741.45 1150.58 747.42
  Q 1149.87 763.64 1149.32 769.53
  Q 1149.07 772.17 1147.19 776.48
  C 1138.73 795.88 1122.97 810.24 1101.94 814.72
  Q 1091.24 817.01 1079.60 816.49
  A 2.01 2.00 -85.2 0 0 1077.52 818.26
  Q 1075.48 836.00 1072.07 861.30
  C 1068.84 885.32 1063.26 908.15 1052.95 929.61
  A 3.30 3.25 -32.5 0 0 1052.62 931.04
  Q 1052.57 946.04 1052.61 960.16
  C 1052.62 962.92 1053.29 964.40 1055.26 966.54
  Q 1070.75 983.39 1074.15 1006.55
  Q 1076.20 1020.54 1076.38 1037.98
  Q 1076.45 1045.33 1082.19 1051.99
  Q 1091.84 1063.19 1109.40 1083.61
  Q 1115.28 1090.45 1123.38 1092.86
  C 1127.82 1094.19 1134.74 1096.12 1141.15 1097.85
  Q 1154.66 1101.50 1165.72 1110.28
  Q 1169.88 1113.58 1178.39 1120.35
  C 1187.27 1127.43 1195.44 1130.40 1209.23 1136.54
  C 1244.81 1152.37 1285.66 1172.39 1334.15 1196.88
  C 1396.57 1228.40 1453.49 1256.16 1528.65 1292.33
  C 1551.00 1303.09 1567.82 1318.05 1585.51 1337.62
  Q 1630.79 1387.74 1655.21 1450.41
  Q 1655.48 1451.10 1656.00 1451.73
  Z
  M 599.57 189.70
  C 624.85 196.64 647.18 211.18 667.01 227.90
  A 1.18 1.12 25.0 0 0 668.91 227.26
  Q 669.00 226.62 668.47 226.10
  Q 667.96 225.60 667.86 225.48
  C 650.61 204.97 627.82 188.79 601.79 181.64
  C 575.75 174.50 547.89 176.77 522.59 185.60
  Q 522.45 185.65 521.75 185.82
  Q 521.03 186.00 520.78 186.59
  A 1.18 1.12 5.7 0 0 522.09 188.11
  C 547.68 183.86 574.30 182.77 599.57 189.70
  Z
  M 479.81 224.22
  A 1.33 1.33 0.0 0 0 481.59 224.77
  C 491.47 219.63 500.00 216.06 511.02 214.85
  Q 584.95 206.78 649.64 244.35
  Q 650.21 244.69 651.11 244.80
  A 0.87 0.87 0.0 0 0 651.81 243.30
  Q 624.43 217.86 588.37 207.43
  C 565.35 200.77 539.94 200.67 516.44 205.00
  C 510.48 206.10 505.62 207.89 500.50 210.49
  Q 489.11 216.29 480.25 222.32
  A 1.43 1.43 0.0 0 0 479.79 224.17
  L 479.81 224.22
  Z
  M 1032.95 251.35
  Q 1033.28 251.24 1033.48 251.31
  C 1041.77 254.20 1052.44 256.48 1059.92 259.30
  C 1074.63 264.83 1088.28 272.75 1101.18 281.50
  A 1.07 1.07 0.0 0 0 1102.84 280.76
  L 1102.92 280.16
  A 0.93 0.92 -63.0 0 0 1102.69 279.43
  Q 1098.90 275.27 1091.39 269.85
  Q 1064.74 250.62 1032.52 249.03
  A 0.56 0.55 2.1 0 0 1031.94 249.56
  Q 1031.92 250.10 1032.33 251.06
  A 0.52 0.51 -19.8 0 0 1032.95 251.35
  Z
  M 494.1364 338.2206
  A 19.64 2.63 -63.0 0 0 482.8767 354.5260
  A 19.64 2.63 -63.0 0 0 476.3036 373.2194
  A 19.64 2.63 -63.0 0 0 487.5633 356.9140
  A 19.64 2.63 -63.0 0 0 494.1364 338.2206
  Z
  M 497.6273 393.5297
  A 0.60 0.19 -79.7 0 0 497.3331 394.0860
  A 0.60 0.19 -79.7 0 0 497.4127 394.7103
  A 0.60 0.19 -79.7 0 0 497.7069 394.1540
  A 0.60 0.19 -79.7 0 0 497.6273 393.5297
  Z
  M 499.4297 393.7833
  A 0.46 0.14 -76.2 0 0 499.1840 394.1966
  A 0.46 0.14 -76.2 0 0 499.2103 394.6767
  A 0.46 0.14 -76.2 0 0 499.4560 394.2634
  A 0.46 0.14 -76.2 0 0 499.4297 393.7833
  Z
  M 496.44 397.66
  Q 496.55 397.50 496.44 397.29
  A 0.08 0.08 0.0 0 0 496.31 397.27
  Q 496.20 397.38 496.16 397.51
  A 0.16 0.16 0.0 0 0 496.44 397.66
  Z
  M 493.7092 406.2792
  A 0.75 0.23 -71.4 0 0 493.2520 406.9166
  A 0.75 0.23 -71.4 0 0 493.2308 407.7008
  A 0.75 0.23 -71.4 0 0 493.6880 407.0634
  A 0.75 0.23 -71.4 0 0 493.7092 406.2792
  Z
  M 491.8489 412.2468
  A 1.00 0.19 -74.4 0 0 491.3970 413.1589
  A 1.00 0.19 -74.4 0 0 491.3111 414.1732
  A 1.00 0.19 -74.4 0 0 491.7630 413.2611
  A 1.00 0.19 -74.4 0 0 491.8489 412.2468
  Z
  M 490.6318 415.8205
  A 0.96 0.21 -88.1 0 0 490.3901 416.7730
  A 0.96 0.21 -88.1 0 0 490.5682 417.7395
  A 0.96 0.21 -88.1 0 0 490.8099 416.7870
  A 0.96 0.21 -88.1 0 0 490.6318 415.8205
  Z
  M 492.29 416.91
  Q 492.23 417.06 492.20 417.20
  A 0.16 0.15 56.0 0 0 492.50 417.27
  Q 492.52 417.10 492.45 416.91
  A 0.09 0.08 -43.5 0 0 492.29 416.91
  Z
  M 1096.80 655.59
  A 1.31 1.31 0.0 0 0 1099.30 656.13
  Q 1111.39 629.42 1127.75 604.15
  C 1129.63 601.25 1131.66 599.59 1134.31 598.05
  C 1137.89 595.97 1141.59 597.82 1142.17 601.72
  Q 1142.49 603.83 1141.10 606.32
  Q 1132.68 621.46 1131.15 623.22
  A 1.72 1.67 -21.8 0 0 1130.74 624.14
  Q 1130.43 626.48 1130.90 627.61
  Q 1134.53 636.30 1137.77 644.31
  Q 1138.16 645.27 1138.53 645.45
  Q 1139.21 645.77 1139.92 645.62
  A 0.87 0.86 85.6 0 0 1140.59 644.83
  Q 1141.79 623.51 1144.99 603.19
  Q 1145.34 600.95 1144.99 599.47
  Q 1143.54 593.45 1140.78 587.78
  Q 1138.05 582.19 1132.55 579.94
  A 2.99 2.82 -31.1 0 0 1131.54 579.72
  Q 1127.19 579.54 1126.23 579.81
  Q 1120.21 581.54 1115.01 585.52
  Q 1104.99 593.19 1098.29 603.80
  A 9.62 9.57 61.3 0 0 1096.80 608.94
  L 1096.80 655.59
  Z
  M 481.58 639.06
  Q 482.36 638.53 482.40 637.48
  Q 482.98 623.94 482.66 612.02
  C 482.31 598.87 476.57 588.02 463.19 584.35
  C 458.19 582.99 453.05 591.40 451.67 595.16
  Q 450.78 597.56 451.62 599.71
  A 2.24 2.11 12.8 0 0 452.13 600.47
  C 463.62 611.62 471.87 624.21 479.16 638.44
  A 1.66 1.66 0.0 0 0 481.58 639.06
  Z
  M 463.59 752.69
  Q 462.72 752.38 461.28 752.66
  A 0.69 0.69 0.0 0 0 460.73 753.22
  Q 459.91 758.52 460.38 766.12
  C 461.72 787.33 476.44 798.64 496.35 801.27
  A 1.05 1.05 0.0 0 0 497.41 800.72
  Q 498.09 799.40 497.86 797.49
  Q 496.60 786.94 492.45 751.26
  Q 491.91 746.61 491.34 743.17
  A 2.93 2.93 0.0 0 0 488.40 740.72
  Q 482.29 740.83 476.73 738.25
  C 467.29 733.86 464.95 722.90 465.53 713.24
  C 466.56 696.25 469.74 678.31 478.87 664.34
  A 3.98 3.97 46.5 0 0 478.98 660.17
  L 462.63 631.93
  A 1.24 1.24 0.0 0 0 460.37 632.19
  C 459.91 633.66 460.66 639.74 461.13 645.85
  Q 461.52 650.84 459.80 657.76
  Q 457.60 666.59 454.04 681.77
  Q 451.29 693.50 450.15 705.16
  C 449.53 711.52 449.74 718.23 451.09 723.44
  Q 452.87 730.31 457.38 736.89
  Q 464.85 747.78 474.31 757.26
  A 1.44 1.44 0.0 0 1 474.33 759.28
  L 473.28 760.37
  A 1.37 1.36 -45.4 0 1 471.33 760.39
  L 463.82 752.83
  A 0.52 0.45 -9.4 0 0 463.59 752.69
  Z
  M 1124.41 638.66
  A 1.71 1.71 0.0 0 0 1121.27 638.18
  L 1106.78 663.28
  A 2.53 2.53 0.0 0 0 1107.27 666.42
  Q 1114.22 672.76 1118.78 682.22
  Q 1126.36 697.91 1129.32 714.94
  C 1130.48 721.58 1130.13 727.55 1124.44 731.98
  C 1120.58 734.98 1116.45 736.38 1108.31 740.06
  Q 1100.42 743.63 1097.20 750.26
  A 4.63 4.62 25.5 0 1 1091.08 752.43
  L 1090.64 752.22
  A 4.39 4.39 0.0 0 1 1088.71 746.03
  Q 1092.62 739.30 1096.77 733.72
  Q 1102.15 726.49 1103.20 723.50
  C 1107.45 711.45 1105.40 699.34 1098.05 689.05
  A 2.34 2.22 -1.6 0 0 1097.28 688.36
  Q 1095.87 687.57 1094.17 688.60
  A 0.93 0.93 0.0 0 0 1093.74 689.26
  Q 1085.35 753.87 1079.62 797.65
  Q 1078.94 802.80 1082.55 804.12
  A 2.77 2.63 55.2 0 0 1083.37 804.29
  Q 1093.00 804.77 1100.50 803.18
  Q 1121.37 798.75 1133.35 781.52
  C 1140.15 771.74 1141.28 758.19 1140.74 746.63
  Q 1140.70 745.75 1140.01 745.64
  C 1139.07 745.49 1138.20 745.82 1137.65 746.90
  C 1135.00 752.14 1130.29 758.36 1125.00 761.27
  A 2.28 2.27 -65.1 0 1 1124.32 761.52
  Q 1122.30 761.90 1122.01 759.66
  A 1.59 1.57 -26.2 0 1 1122.48 758.31
  Q 1132.69 748.53 1138.76 736.34
  Q 1145.96 721.89 1145.11 704.69
  Q 1144.36 689.46 1139.01 674.45
  Q 1133.14 657.95 1124.58 639.40
  Q 1124.56 639.35 1124.41 638.66
  Z
  M 745.44 1163.31
  C 755.30 1165.67 765.72 1167.16 775.85 1167.51
  Q 809.63 1168.66 841.65 1161.87
  Q 882.51 1153.22 920.93 1132.67
  Q 944.15 1120.25 965.00 1105.25
  C 987.83 1088.83 1008.32 1069.24 1023.26 1045.80
  Q 1031.98 1032.12 1036.03 1016.48
  Q 1037.25 1011.77 1037.65 1004.94
  C 1038.61 988.43 1038.76 971.68 1039.24 956.93
  A 0.88 0.87 -78.0 0 0 1038.71 956.11
  Q 1038.31 955.94 1037.17 956.23
  A 0.67 0.66 84.2 0 0 1036.67 956.85
  Q 1036.65 957.23 1036.21 957.97
  Q 1025.34 976.30 1012.58 991.84
  C 991.63 1017.36 965.86 1041.95 941.04 1065.02
  C 919.07 1085.44 895.85 1102.86 869.72 1115.92
  C 842.31 1129.62 813.00 1139.17 782.72 1145.68
  Q 775.78 1147.17 768.27 1148.86
  Q 760.21 1150.68 751.15 1156.67
  Q 748.58 1158.37 744.99 1160.79
  A 1.40 1.40 0.0 0 0 745.44 1163.31
  Z
  M 687.01 1146.27
  L 686.84 1145.61
  A 1.79 1.76 15.7 0 0 686.40 1144.84
  Q 637.85 1095.02 599.02 1039.26
  C 590.76 1027.41 581.90 1017.26 573.23 1007.50
  A 0.98 0.98 0.0 0 0 571.56 1007.85
  Q 571.55 1007.87 571.44 1008.07
  A 0.60 0.56 -32.4 0 0 571.35 1008.41
  Q 571.93 1020.01 573.00 1031.79
  Q 573.72 1039.65 575.53 1048.99
  Q 580.84 1076.41 601.11 1094.89
  Q 618.14 1110.41 632.53 1119.74
  Q 657.52 1135.95 686.35 1146.87
  A 0.51 0.50 -87.0 0 0 687.01 1146.27
  Z"
/>
<g fill="#070707">
<path d="
  M 892.99 240.13
  A 0.84 0.84 0.0 0 0 894.40 240.83
  Q 918.82 217.68 923.96 183.74
  Q 925.33 174.73 925.24 163.99
  Q 925.24 163.59 925.54 163.41
  A 0.42 0.42 0.0 0 1 926.16 163.65
  C 931.29 182.20 930.92 201.93 923.22 218.75
  Q 917.65 230.93 908.12 241.37
  C 897.36 253.16 883.04 257.95 867.72 256.64
  A 0.88 0.88 0.0 0 1 867.03 255.32
  C 868.04 253.58 870.99 252.06 872.96 250.73
  Q 875.00 249.36 877.17 246.86
  Q 891.16 230.78 898.06 210.99
  Q 904.82 191.63 903.87 169.87
  C 902.68 142.21 891.68 116.92 872.93 96.30
  A 0.52 0.52 0.0 0 1 872.94 95.59
  L 872.96 95.57
  A 0.51 0.50 -45.4 0 1 873.68 95.56
  C 893.96 115.42 906.82 140.49 909.47 169.01
  Q 912.98 206.81 893.41 239.15
  Q 893.03 239.78 892.99 240.13
  Z"
/>
<path d="
  M 951.55 147.80
  A 0.29 0.29 0.0 0 1 952.11 147.76
  C 958.54 173.32 955.39 201.53 942.28 223.81
  C 932.51 240.43 916.35 251.53 898.13 258.14
  Q 897.66 258.31 897.41 258.10
  A 0.57 0.57 0.0 0 1 897.46 257.19
  Q 941.52 228.26 949.26 176.69
  C 950.70 167.15 950.57 156.64 951.55 147.80
  Z"
/>
<path d="
  M 847.60 235.87
  C 840.68 248.39 829.67 258.53 816.54 263.74
  A 0.94 0.94 0.0 0 1 815.59 262.16
  Q 830.54 249.24 840.20 231.77
  Q 849.85 214.30 852.84 194.76
  A 0.94 0.94 0.0 0 1 854.68 194.74
  C 857.25 208.62 854.52 223.35 847.60 235.87
  Z"
/>
<path d="
  M 1074.12 387.31
  Q 1074.70 387.04 1078.32 393.72
  Q 1085.24 406.53 1091.47 419.69
  Q 1097.69 432.85 1103.19 446.33
  Q 1106.06 453.36 1105.48 453.64
  Q 1104.90 453.91 1101.29 447.23
  Q 1094.36 434.42 1088.14 421.26
  Q 1081.91 408.10 1076.41 394.62
  Q 1073.54 387.59 1074.12 387.31
  Z"
/>
<path d="
  M 1071.90 412.80
  Q 1072.87 412.32 1079.67 424.78
  Q 1083.08 431.02 1086.24 437.38
  Q 1089.40 443.75 1092.30 450.24
  Q 1098.10 463.19 1097.13 463.67
  Q 1096.17 464.15 1089.36 451.70
  Q 1085.96 445.46 1082.80 439.09
  Q 1079.64 432.72 1076.74 426.23
  Q 1070.94 413.28 1071.90 412.80
  Z"
/>
<ellipse cx="0.00" cy="0.00" transform="translate(1083.64,469.32) rotate(-114.8)" rx="21.62" ry="1.94"/>
<path d="
  M 1083.30 494.92
  Q 1083.87 494.69 1086.39 499.99
  Q 1089.17 505.83 1091.60 511.82
  Q 1094.03 517.80 1096.11 523.92
  Q 1098.00 529.48 1097.44 529.71
  Q 1096.88 529.94 1094.35 524.64
  Q 1091.57 518.80 1089.14 512.82
  Q 1086.71 506.83 1084.64 500.71
  Q 1082.75 495.15 1083.30 494.92
  Z"
/>
<path d="
  M 961.61 534.99
  A 0.26 0.25 -86.5 0 0 961.32 534.66
  Q 954.11 536.03 944.82 537.41
  Q 939.68 538.17 928.14 538.54
  Q 896.94 539.54 866.34 549.63
  Q 855.54 553.20 855.14 553.30
  Q 852.32 554.02 850.96 552.35
  C 849.70 550.83 850.63 549.29 851.53 547.50
  Q 863.65 523.29 888.13 511.92
  A 0.81 0.81 0.0 0 1 889.03 512.07
  L 889.38 512.41
  A 0.52 0.52 0.0 0 1 889.27 513.24
  Q 872.04 522.64 861.34 539.59
  Q 860.74 540.54 860.89 541.42
  A 0.85 0.85 0.0 0 0 862.34 541.86
  Q 875.43 527.91 891.46 518.42
  C 895.70 515.91 904.23 512.35 908.56 513.77
  Q 912.11 514.94 914.24 514.22
  Q 920.68 512.05 931.35 509.47
  Q 939.12 507.58 942.78 508.20
  Q 948.47 509.17 953.70 512.04
  Q 955.82 513.20 958.41 512.64
  A 1.27 1.27 0.0 0 1 959.91 514.21
  L 959.73 514.88
  A 1.29 1.28 -81.8 0 1 958.45 515.84
  Q 949.65 515.62 941.55 512.73
  C 939.52 512.00 936.87 512.55 934.58 513.33
  Q 924.52 516.78 914.41 520.21
  A 1.19 1.19 0.0 0 0 913.65 521.68
  L 913.67 521.73
  A 1.16 1.15 -15.8 0 0 915.08 522.51
  Q 927.89 519.10 938.61 522.34
  C 941.76 523.29 946.10 521.00 947.93 520.43
  Q 951.15 519.42 963.11 517.37
  A 1.58 1.48 84.7 0 0 964.33 515.79
  Q 964.31 514.83 965.18 514.46
  A 1.01 0.93 -52.2 0 1 965.65 514.38
  Q 974.61 515.01 978.86 514.04
  Q 983.54 512.97 985.50 513.42
  A 3.82 3.78 65.3 0 1 986.38 513.75
  C 997.50 519.67 1008.03 526.64 1016.46 536.55
  A 4.80 4.76 76.9 0 0 1018.83 538.04
  L 1020.54 538.50
  A 1.24 1.24 0.0 0 0 1021.87 536.58
  Q 1012.71 523.74 1000.70 515.29
  Q 996.40 512.26 990.45 510.15
  Q 985.01 508.22 978.81 510.17
  A 6.39 6.27 37.9 0 1 976.45 510.44
  Q 961.24 509.24 954.96 508.76
  A 0.65 0.63 -79.1 0 1 954.41 507.92
  Q 954.53 507.54 955.12 507.41
  Q 964.27 505.38 973.09 508.08
  A 3.79 3.59 -34.5 0 0 974.10 508.24
  Q 978.10 508.31 983.03 506.81
  A 6.57 6.42 37.7 0 1 985.37 506.54
  Q 991.90 507.01 999.57 511.93
  Q 1012.08 519.97 1021.48 531.80
  Q 1027.10 538.88 1036.65 550.96
  A 1.12 1.12 0.0 0 1 1036.34 552.61
  L 1036.29 552.64
  A 1.57 1.56 53.5 0 1 1034.34 552.34
  Q 1026.49 543.70 1015.46 539.81
  Q 1006.61 536.69 995.60 537.12
  Q 991.76 537.27 983.49 538.90
  C 976.90 540.19 969.84 540.92 963.68 539.75
  A 2.11 2.08 68.3 0 1 962.84 539.38
  Q 960.73 537.82 961.61 534.99
  Z
  M 992.6818 521.5602
  A 18.09 3.66 -3.2 0 0 974.4157 518.9157
  A 18.09 3.66 -3.2 0 0 956.5582 523.5798
  A 18.09 3.66 -3.2 0 0 974.8243 526.2243
  A 18.09 3.66 -3.2 0 0 992.6818 521.5602
  Z
  M 1007.6276 519.0407
  A 0.59 0.18 -130.4 0 0 1007.8729 519.6067
  A 0.59 0.18 -130.4 0 0 1008.3924 519.9393
  A 0.59 0.18 -130.4 0 0 1008.1471 519.3733
  A 0.59 0.18 -130.4 0 0 1007.6276 519.0407
  Z
  M 963.48 534.02
  A 0.60 0.60 0.0 0 0 963.63 535.19
  C 969.80 535.38 976.56 534.16 983.33 532.60
  Q 992.19 530.57 1008.19 534.59
  A 1.40 1.39 9.2 0 0 1009.93 533.34
  L 1009.95 533.16
  A 2.50 2.49 -76.3 0 0 1008.46 530.70
  Q 997.80 526.08 997.05 525.71
  Q 994.64 524.55 990.95 525.69
  Q 971.96 531.56 963.48 534.02
  Z"
/>
<path d="
  M 562.65 546.71
  Q 561.28 547.43 559.55 547.47
  A 1.83 1.75 57.1 0 1 558.62 547.25
  C 554.24 544.95 548.81 545.27 544.03 546.83
  Q 532.02 550.74 521.72 558.49
  A 1.54 1.52 -35.0 0 1 519.51 558.11
  Q 519.03 557.36 519.66 556.18
  Q 527.60 541.18 537.66 527.60
  Q 549.32 511.87 569.48 512.77
  A 0.93 0.93 0.0 0 1 569.91 514.50
  L 565.34 517.14
  A 2.74 2.72 41.4 0 1 562.92 517.28
  Q 558.09 515.21 553.58 517.55
  Q 537.36 526.00 532.76 542.51
  Q 532.65 542.91 532.65 543.73
  A 1.68 1.68 0.0 0 0 534.69 545.36
  Q 537.47 544.75 551.44 541.53
  C 555.81 540.53 558.05 539.82 561.51 541.20
  A 0.59 0.59 0.0 0 1 561.72 542.15
  L 559.94 543.99
  A 0.97 0.97 0.0 0 0 560.64 545.64
  L 562.38 545.64
  A 0.57 0.57 0.0 0 1 562.65 546.71
  Z"
/>
<path d="
  M 560.56 535.06
  Q 562.26 533.21 563.76 533.21
  Q 579.07 533.18 588.64 533.21
  A 1.21 1.21 0.0 0 0 589.24 530.94
  Q 579.19 525.30 567.81 526.71
  Q 563.08 527.29 560.93 530.94
  A 1.88 1.88 0.0 0 1 560.25 531.62
  Q 558.62 532.56 557.74 532.65
  A 0.59 0.59 0.0 0 0 557.26 533.46
  L 557.79 534.75
  A 0.31 0.31 0.0 0 1 557.52 535.18
  L 548.86 535.53
  A 1.01 1.00 -37.1 0 1 548.49 535.48
  C 544.40 534.19 543.92 529.11 547.37 526.86
  Q 552.83 523.31 559.27 521.33
  A 0.76 0.76 0.0 0 1 560.20 522.33
  Q 560.02 522.80 559.29 523.28
  Q 555.76 525.62 548.78 528.29
  C 547.20 528.89 547.13 530.44 547.65 531.86
  A 1.00 0.99 -6.7 0 0 548.47 532.50
  Q 553.61 533.08 557.52 529.40
  C 561.45 525.69 564.12 522.51 569.36 521.68
  Q 571.95 521.27 577.53 522.57
  Q 587.29 524.84 599.03 527.11
  Q 605.99 528.46 611.98 528.35
  Q 617.02 528.25 620.78 526.30
  A 1.02 1.01 38.8 0 0 620.57 524.42
  L 620.16 524.31
  A 2.06 1.88 47.5 0 0 619.48 524.25
  Q 608.06 525.15 596.79 522.19
  Q 594.91 521.69 591.85 520.66
  A 6.25 6.21 54.1 0 0 589.88 520.34
  L 577.21 520.34
  A 1.05 1.05 0.0 0 1 576.99 518.26
  Q 598.96 513.57 622.26 514.87
  Q 631.41 515.38 642.83 516.91
  Q 651.18 518.03 659.57 523.05
  Q 660.28 523.47 660.42 523.44
  A 1.55 1.55 0.0 0 0 661.23 520.94
  Q 659.63 519.05 656.83 516.65
  A 0.71 0.68 -47.1 0 1 656.81 515.63
  Q 657.31 515.13 657.87 515.39
  Q 669.73 520.89 678.95 530.80
  Q 682.38 534.49 690.31 543.04
  A 1.39 1.39 0.0 0 0 692.59 542.69
  Q 692.73 542.39 692.56 541.43
  A 2.02 1.99 -66.9 0 0 692.25 540.64
  C 686.86 532.40 680.37 526.83 674.44 519.47
  A 0.94 0.94 0.0 0 1 675.56 518.02
  C 685.85 522.58 692.77 531.95 695.55 542.71
  Q 696.26 545.43 699.48 546.29
  Q 705.72 547.94 706.31 547.99
  A 0.59 0.59 0.0 0 0 706.92 547.23
  Q 706.31 545.31 705.70 544.33
  Q 702.44 539.01 693.90 523.94
  Q 693.64 523.49 693.68 523.21
  A 0.95 0.91 -64.5 0 1 695.23 522.62
  Q 703.65 530.88 708.33 541.92
  A 1.44 1.40 32.8 0 1 708.45 542.44
  L 708.77 546.80
  A 5.00 4.99 13.8 0 0 711.12 550.67
  Q 715.58 553.43 719.41 556.40
  Q 737.94 570.77 742.71 592.51
  Q 744.36 599.99 744.48 619.69
  Q 744.66 647.03 744.82 664.06
  Q 745.21 704.77 725.74 740.54
  Q 725.74 740.55 725.47 741.21
  Q 725.13 742.05 724.15 741.93
  A 0.73 0.72 11.0 0 1 723.53 741.02
  L 734.91 698.35
  A 9.44 9.31 -41.1 0 0 735.17 694.87
  L 728.03 633.91
  A 1.52 1.52 0.0 0 0 725.43 633.03
  L 706.59 652.62
  A 0.54 0.54 0.0 0 1 705.76 652.55
  L 705.60 652.32
  A 1.08 1.08 0.0 0 1 705.64 651.03
  Q 722.30 630.03 723.23 602.60
  A 2.65 2.59 36.2 0 0 723.06 601.57
  C 717.15 586.10 707.66 572.28 693.23 563.78
  Q 687.00 560.11 680.08 557.35
  Q 651.00 545.74 625.80 543.96
  Q 599.79 542.11 581.76 540.03
  Q 574.06 539.14 568.95 538.09
  Q 565.22 537.33 560.72 535.69
  A 0.39 0.39 0.0 0 1 560.56 535.06
  Z
  M 614.9645 517.8017
  A 11.89 1.80 -169.1 0 0 626.2996 521.8175
  A 11.89 1.80 -169.1 0 0 638.3155 522.2983
  A 11.89 1.80 -169.1 0 0 626.9804 518.2825
  A 11.89 1.80 -169.1 0 0 614.9645 517.8017
  Z
  M 599.90 517.54
  A 1.26 1.26 0.0 0 0 600.22 519.56
  Q 605.82 522.37 611.91 521.64
  A 0.59 0.58 -5.3 0 0 612.42 521.03
  L 612.37 520.19
  A 0.55 0.55 0.0 0 0 611.79 519.67
  Q 611.32 519.73 610.34 519.16
  Q 607.75 517.67 600.68 517.53
  Q 599.92 517.52 599.90 517.54
  Z
  M 648.12 529.39
  L 652.96 529.41
  A 0.78 0.78 0.0 0 0 653.74 528.64
  L 653.75 528.10
  A 2.78 2.44 0.3 0 0 650.98 525.64
  L 650.14 525.64
  A 2.78 2.44 0.3 0 0 647.35 528.06
  L 647.34 528.60
  A 0.78 0.78 0.0 0 0 648.12 529.39
  Z"
/>
<path d="
  M 840.20 551.41
  Q 847.91 527.81 864.83 516.39
  A 1.49 1.48 45.2 0 1 866.51 516.40
  L 866.54 516.42
  A 0.76 0.76 0.0 0 1 866.58 517.61
  L 858.01 524.94
  A 8.67 8.58 84.1 0 0 856.04 527.39
  L 842.43 552.98
  A 1.08 1.07 32.5 0 1 840.83 553.33
  L 840.80 553.30
  A 1.72 1.71 -62.7 0 1 840.20 551.41
  Z"
/>
<ellipse cx="0.00" cy="0.00" transform="translate(939.74,517.86) rotate(-179.8)" rx="7.14" ry="1.43"/>
<path d="
  M 1092.44 536.58
  Q 1094.32 541.71 1095.89 546.94
  Q 1097.32 551.70 1096.85 551.87
  Q 1096.37 552.05 1094.39 547.49
  Q 1092.21 542.48 1090.33 537.35
  Q 1088.45 532.23 1086.88 527.00
  Q 1085.45 522.24 1085.92 522.07
  Q 1086.40 521.89 1088.38 526.44
  Q 1090.56 531.46 1092.44 536.58
  Z"
/>
<path d="
  M 837.78 539.55
  C 836.46 543.26 835.72 548.06 835.00 552.24
  A 0.62 0.61 13.7 0 1 834.21 552.72
  Q 834.07 552.67 833.93 552.52
  Q 833.84 552.42 833.82 552.22
  Q 833.06 544.51 835.17 538.61
  Q 837.29 532.72 842.77 527.25
  Q 842.92 527.11 843.05 527.09
  Q 843.26 527.06 843.39 527.11
  A 0.62 0.61 25.8 0 1 843.70 527.98
  C 841.60 531.67 839.11 535.85 837.78 539.55
  Z"
/>
<path d="
  M 544.62 534.77
  A 0.65 0.65 0.0 0 1 544.59 535.69
  L 538.67 541.19
  A 2.43 1.29 -42.9 0 1 536.01 541.90
  L 535.71 541.58
  A 2.43 1.29 -42.9 0 1 536.61 538.98
  L 542.53 533.48
  A 0.65 0.65 0.0 0 1 543.45 533.51
  L 544.62 534.77
  Z"
/>
<path d="
  M 710.88 538.14
  L 711.72 537.27
  A 0.40 0.40 0.0 0 1 712.38 537.39
  L 715.74 545.54
  A 1.19 1.19 0.0 0 1 715.09 547.09
  L 714.55 547.32
  A 1.17 1.16 -14.8 0 1 712.95 546.39
  Q 712.40 541.98 710.77 539.00
  A 0.73 0.73 0.0 0 1 710.88 538.14
  Z"
/>
<path d="
  M 823.38 541.60
  A 1.08 1.07 33.9 0 1 824.84 541.32
  L 824.88 541.34
  A 1.02 1.01 -57.5 0 1 825.18 542.73
  Q 820.67 549.85 826.24 555.98
  A 0.89 0.89 0.0 0 1 825.60 557.47
  Q 821.21 557.57 820.55 552.67
  Q 819.77 546.78 823.38 541.60
  Z"
/>
<path d="
  M 586.83 545.53
  Q 577.21 547.23 569.90 547.31
  A 4.18 4.13 -23.0 0 1 567.00 546.16
  L 564.13 543.40
  A 0.64 0.63 70.6 0 1 564.65 542.31
  L 586.82 545.20
  A 0.17 0.17 0.0 0 1 586.83 545.53
  Z"
/>
<path d="
  M 1025.30 553.45
  Q 1029.82 556.23 1033.40 561.73
  Q 1033.49 561.88 1033.49 561.99
  Q 1033.47 562.17 1033.41 562.27
  A 0.52 0.52 0.0 0 1 1032.63 562.38
  C 1029.94 559.99 1026.91 557.20 1024.06 555.46
  C 1021.22 553.71 1017.37 552.26 1014.03 550.94
  A 0.52 0.52 0.0 0 1 1013.77 550.20
  Q 1013.83 550.09 1013.98 550.00
  Q 1014.08 549.95 1014.25 549.96
  Q 1020.78 550.67 1025.30 553.45
  Z"
/>
<path d="
  M 542.15 554.10
  Q 542.40 554.52 542.36 554.96
  Q 542.32 555.34 541.87 555.63
  Q 535.38 559.66 528.85 563.63
  Q 522.32 567.60 515.75 571.49
  Q 515.28 571.76 514.93 571.62
  Q 514.52 571.46 514.26 571.04
  Q 514.01 570.62 514.05 570.18
  Q 514.09 569.80 514.54 569.51
  Q 521.03 565.48 527.56 561.51
  Q 534.09 557.54 540.66 553.65
  Q 541.13 553.38 541.48 553.52
  Q 541.89 553.68 542.15 554.10
  Z"
/>
<path d="
  M 890.45 568.42
  C 881.86 571.35 872.22 576.40 865.74 581.49
  Q 855.30 589.68 850.45 593.17
  Q 849.76 593.67 849.24 593.62
  A 1.44 1.36 -72.3 0 1 848.23 591.51
  C 865.28 560.49 903.97 552.97 936.10 557.96
  Q 946.26 559.53 960.96 563.31
  Q 972.00 566.14 981.33 570.85
  Q 1000.26 580.41 1006.36 600.26
  Q 1006.58 600.96 1006.49 601.12
  A 1.51 1.50 42.0 0 1 1003.95 601.25
  Q 999.05 594.35 992.73 588.26
  Q 971.88 568.16 943.48 564.07
  C 925.34 561.45 907.82 562.49 890.45 568.42
  Z"
/>
<path d="
  M 556.11 608.88
  A 1.07 1.07 0.0 0 1 554.41 607.69
  Q 558.96 595.54 566.67 585.44
  Q 573.80 576.08 584.77 571.28
  Q 592.45 567.92 600.39 565.90
  Q 621.21 560.62 643.50 560.20
  Q 652.48 560.03 659.00 560.99
  Q 672.44 562.95 685.86 568.62
  C 696.07 572.94 707.16 580.06 709.80 591.30
  C 710.43 593.94 708.18 595.15 706.22 593.32
  Q 669.70 559.31 619.16 567.07
  Q 595.28 570.75 578.20 585.57
  C 570.15 592.56 564.05 602.06 556.11 608.88
  Z"
/>
<rect x="-16.18" y="-1.10" transform="translate(528.79,572.09) rotate(-32.5)" width="32.36" height="2.20" rx="0.95"/>
<path d="
  M 890.29 616.05
  L 890.22 616.30
  A 0.68 0.68 0.0 0 1 889.27 616.74
  Q 875.78 610.27 861.29 610.79
  A 2.29 2.26 -25.8 0 1 859.71 610.25
  C 856.21 607.28 858.97 605.14 861.64 602.47
  Q 875.04 589.13 891.01 580.02
  C 903.77 572.74 917.74 569.00 932.32 569.79
  Q 939.74 570.18 946.96 572.28
  C 970.58 579.14 988.38 594.68 1002.70 614.51
  A 0.72 0.72 0.0 0 1 1002.54 615.51
  L 1001.89 615.98
  A 0.81 0.80 -40.2 0 1 1000.85 615.90
  C 995.70 610.72 988.49 604.83 980.65 609.03
  A 4.59 4.27 -76.8 0 0 979.95 609.50
  Q 973.56 614.83 968.57 617.79
  Q 967.57 618.38 966.85 618.26
  A 1.16 1.16 0.0 0 1 966.19 616.34
  Q 966.71 615.77 975.07 607.37
  C 978.33 604.09 976.04 600.30 973.85 596.76
  Q 968.90 588.78 959.45 583.62
  Q 957.32 582.45 954.90 582.05
  A 1.18 1.17 1.7 0 0 953.54 583.33
  C 955.27 599.90 950.28 613.32 932.99 617.51
  C 919.14 620.88 906.40 612.48 902.27 599.23
  C 900.76 594.38 901.15 587.11 901.19 583.08
  A 1.71 1.71 0.0 0 0 898.48 581.68
  L 882.40 593.35
  A 2.60 2.55 80.7 0 0 881.45 594.70
  C 879.02 602.95 880.66 611.25 889.57 614.66
  A 1.17 1.16 17.7 0 1 890.29 616.05
  Z
  M 929.5811 583.4962
  A 5.96 3.83 -176.5 0 0 935.2962 587.6829
  A 5.96 3.83 -176.5 0 0 941.4789 584.2238
  A 5.96 3.83 -176.5 0 0 935.7638 580.0371
  A 5.96 3.83 -176.5 0 0 929.5811 583.4962
  Z"
/>
<path d="
  M 818.99 588.68
  C 816.12 594.67 814.09 601.81 812.64 607.93
  A 0.54 0.54 0.0 0 1 811.59 607.89
  C 810.47 600.64 811.79 593.49 815.01 586.78
  C 818.23 580.06 822.98 574.55 829.33 570.89
  A 0.54 0.54 0.0 0 1 830.02 571.68
  C 826.16 576.65 821.86 582.69 818.99 588.68
  Z"
/>
<path d="
  M 658.34 586.57
  L 657.97 587.22
  A 1.55 1.50 -30.7 0 0 657.76 587.99
  C 657.74 597.26 658.38 602.33 654.86 608.97
  C 649.68 618.72 636.75 623.04 626.54 620.18
  C 612.92 616.36 606.28 600.92 609.35 587.79
  C 610.21 584.11 608.32 581.25 604.24 582.42
  A 2.45 2.45 0.0 0 0 603.39 582.87
  C 597.30 588.01 591.17 592.05 590.42 599.26
  Q 589.49 608.21 592.86 615.10
  Q 594.91 619.29 600.61 619.67
  A 1.26 1.24 71.4 0 1 601.50 620.12
  Q 602.16 620.93 601.65 622.11
  A 0.86 0.86 0.0 0 1 600.42 622.52
  L 577.30 609.18
  A 3.81 3.80 40.9 0 0 573.03 609.48
  L 559.04 620.46
  A 0.76 0.75 -33.1 0 1 557.91 620.23
  L 557.89 620.17
  A 1.06 1.05 56.0 0 1 558.14 618.86
  Q 565.49 612.57 568.08 609.83
  Q 581.48 595.62 582.90 594.16
  C 598.66 578.01 620.03 570.14 642.43 573.91
  C 664.41 577.61 685.12 590.84 700.29 607.20
  A 1.92 1.81 -77.0 0 1 700.70 607.90
  Q 701.65 610.96 699.27 612.53
  A 2.23 2.17 25.2 0 1 698.28 612.87
  Q 684.15 613.99 672.38 621.29
  A 1.40 1.40 0.0 0 1 670.54 620.96
  L 670.38 620.75
  A 0.77 0.76 56.8 0 1 670.62 619.60
  Q 679.76 614.79 683.19 606.21
  Q 683.88 604.49 683.45 602.50
  A 2.35 2.25 22.0 0 0 683.10 601.72
  Q 674.65 590.17 660.80 585.63
  A 2.09 2.09 0.0 0 0 658.34 586.57
  Z
  M 643.9228 586.4850
  A 3.19 3.19 0.0 0 0 640.6667 583.3625
  L 638.9271 583.3990
  A 3.19 3.19 0.0 0 0 635.8046 586.6551
  L 635.8172 587.2550
  A 3.19 3.19 0.0 0 0 639.0733 590.3775
  L 640.8129 590.3410
  A 3.19 3.19 0.0 0 0 643.9354 587.0849
  L 643.9228 586.4850
  Z"
/>
<path d="
  M 656.54 632.10
  A 0.29 0.29 0.0 0 1 656.67 632.66
  Q 623.80 643.57 591.77 632.43
  C 583.75 629.64 579.23 626.76 574.57 620.25
  Q 574.09 619.58 574.38 618.81
  A 0.69 0.69 0.0 0 1 575.46 618.51
  Q 594.92 634.38 620.78 634.49
  Q 638.41 634.57 656.54 632.10
  Z"
/>
<path d="
  M 869.07 619.73
  L 869.08 619.69
  A 0.81 0.81 0.0 0 1 870.13 619.13
  Q 873.67 620.40 875.49 621.11
  C 879.58 622.72 883.90 623.35 887.78 624.96
  Q 891.53 626.52 893.31 626.69
  C 895.63 626.90 898.07 628.30 900.80 628.83
  Q 915.23 631.67 925.89 633.09
  C 930.44 633.70 935.72 633.79 940.06 633.88
  Q 948.48 634.05 957.12 630.01
  A 1.38 1.38 0.0 0 1 959.08 631.26
  L 959.08 631.79
  A 1.72 1.70 -7.5 0 1 957.80 633.44
  Q 955.26 634.11 953.52 634.08
  A 2.50 2.23 -48.4 0 0 952.84 634.16
  Q 936.88 638.59 921.28 635.55
  Q 905.62 632.49 893.45 629.29
  Q 891.63 628.81 884.45 625.94
  A 10.27 9.81 60.3 0 0 882.71 625.42
  Q 876.18 624.09 869.64 620.95
  A 1.07 1.07 0.0 0 1 869.07 619.73
  Z"
/>
<path d="
  M 743.08 808.33
  A 1.22 1.21 65.3 0 1 742.38 810.23
  Q 722.34 814.88 704.75 806.11
  C 685.26 796.39 684.13 778.19 690.98 759.69
  C 695.69 746.96 702.18 735.69 709.64 723.69
  A 0.51 0.51 0.0 0 1 710.58 724.03
  Q 709.48 732.11 707.24 737.88
  Q 707.08 738.28 700.70 757.95
  C 695.74 773.24 696.91 788.40 712.01 797.06
  C 721.13 802.28 731.46 804.92 741.99 807.38
  A 1.32 1.31 78.4 0 1 742.76 807.89
  L 743.08 808.33
  Z"
/>
<path d="
  M 824.96 808.19
  A 1.10 1.10 0.0 0 1 824.61 806.21
  Q 829.44 802.95 833.19 800.69
  Q 838.97 797.20 841.39 794.67
  Q 851.49 784.11 850.77 769.37
  Q 850.53 764.45 848.21 758.30
  Q 841.35 740.04 836.66 727.86
  Q 836.18 726.61 836.21 726.01
  A 1.07 1.07 0.0 0 1 838.07 725.35
  Q 849.95 738.47 856.19 754.52
  Q 857.84 758.79 858.96 764.29
  C 862.30 780.81 856.39 794.69 841.10 802.64
  Q 833.71 806.47 825.48 808.17
  Q 825.17 808.24 824.96 808.19
  Z"
/>
<path d="
  M 780.94 802.97
  Q 779.08 804.00 776.66 804.37
  Q 774.94 804.64 762.91 805.12
  A 6.68 6.50 53.5 0 1 760.34 804.70
  Q 740.59 797.21 717.66 790.92
  Q 712.19 789.42 711.86 783.62
  Q 711.77 782.07 713.99 778.22
  C 716.18 774.43 719.81 773.43 724.29 773.51
  Q 730.57 773.63 732.95 773.49
  A 0.94 0.93 -3.1 0 0 733.83 772.52
  Q 733.80 771.71 733.26 771.24
  Q 727.20 766.04 725.26 759.84
  C 724.77 758.28 724.03 756.89 724.24 755.15
  A 1.09 1.09 0.0 0 1 726.19 754.62
  C 737.14 768.94 752.31 784.94 770.29 788.97
  Q 773.36 789.66 776.94 789.28
  A 2.93 2.88 -58.4 0 0 777.79 789.07
  Q 789.44 784.45 800.52 778.44
  Q 807.72 774.54 811.65 773.75
  Q 818.61 772.36 826.14 773.94
  Q 830.38 774.84 832.09 776.77
  C 835.31 780.43 834.51 784.86 831.42 788.49
  Q 825.80 795.11 816.94 793.49
  Q 813.16 792.80 811.55 792.67
  C 803.05 791.99 795.63 794.17 788.48 798.74
  Q 783.09 802.18 781.93 802.59
  Q 781.12 802.87 780.94 802.97
  Z"
/>
<path d="
  M 778.85 871.48
  A 0.60 0.60 0.0 0 1 778.24 870.88
  L 778.20 864.76
  A 30.21 2.03 89.6 0 1 780.02 834.53
  L 780.38 834.53
  A 30.21 2.03 89.6 0 1 782.62 864.72
  L 782.66 870.85
  A 0.60 0.60 0.0 0 1 782.07 871.46
  L 778.85 871.48
  Z"
/>
<path d="
  M 899.31 921.26
  A 0.71 0.70 -84.8 0 1 898.47 921.97
  Q 861.47 914.20 824.25 910.02
  Q 808.92 908.30 793.03 910.59
  Q 785.96 911.61 774.26 913.35
  C 772.53 913.61 769.61 913.29 767.32 912.83
  C 752.72 909.92 738.63 908.29 723.79 909.64
  C 721.92 909.81 719.98 910.41 717.98 910.68
  Q 716.89 910.82 715.69 911.18
  Q 700.06 915.85 685.06 918.32
  Q 678.21 919.45 672.07 918.42
  A 4.02 4.00 -51.3 0 0 669.84 918.67
  L 655.72 924.49
  A 1.66 1.66 0.0 0 1 653.55 922.33
  Q 658.88 909.29 673.32 907.68
  Q 682.69 906.63 689.27 905.20
  Q 694.65 904.02 703.06 900.16
  Q 720.94 891.96 742.79 882.79
  C 746.49 881.24 748.92 881.97 752.47 883.95
  Q 761.91 889.18 767.12 891.93
  A 3.72 3.19 -20.4 0 0 767.91 892.22
  Q 773.78 893.51 777.42 892.13
  Q 790.67 887.12 793.08 886.36
  Q 799.43 884.34 805.03 884.07
  Q 809.03 883.87 814.18 885.84
  Q 819.79 887.97 866.61 907.01
  A 3.98 3.90 58.6 0 0 867.60 907.26
  Q 874.93 908.11 883.74 907.58
  Q 884.86 907.51 889.40 908.39
  Q 895.43 909.57 897.74 914.94
  Q 899.21 918.36 899.31 921.26
  Z"
/>
<path d="
  M 772.98 951.20
  Q 789.21 951.58 803.74 950.41
  Q 827.59 948.49 848.99 940.49
  A 0.64 0.64 0.0 0 1 849.76 941.43
  Q 849.56 941.74 848.90 942.17
  C 825.86 957.27 800.24 964.10 772.69 963.46
  C 745.14 962.81 719.87 954.79 697.56 938.64
  Q 696.92 938.17 696.73 937.85
  A 0.64 0.64 0.0 0 1 697.55 936.95
  Q 718.55 945.94 742.28 948.97
  Q 756.74 950.82 772.98 951.20
  Z"
/>
<path d="
  M 774.50 994.33
  C 791.86 994.26 803.62 993.68 817.15 998.37
  A 0.65 0.65 0.0 0 1 817.36 999.48
  Q 817.12 999.69 816.61 999.65
  Q 794.32 997.97 774.51 998.04
  Q 754.71 998.12 732.43 999.98
  Q 731.92 1000.02 731.68 999.81
  A 0.65 0.65 0.0 0 1 731.88 998.70
  C 745.38 993.90 757.14 994.40 774.50 994.33
  Z"
/>
</g>
</svg>
