<?xml version="1.0" encoding="utf-8" standalone="no"?>
<!DOCTYPE svg PUBLIC "-//W3C//DTD SVG 1.1//EN"
  "http://www.w3.org/Graphics/SVG/1.1/DTD/svg11.dtd">
<svg xmlns:xlink="http://www.w3.org/1999/xlink" width="429.020621pt" height="208.8pt" viewBox="0 0 429.020621 208.8" xmlns="http://www.w3.org/2000/svg" version="1.1">
 <metadata>
  <rdf:RDF xmlns:dc="http://purl.org/dc/elements/1.1/" xmlns:cc="http://creativecommons.org/ns#" xmlns:rdf="http://www.w3.org/1999/02/22-rdf-syntax-ns#">
   <cc:Work>
    <dc:type rdf:resource="http://purl.org/dc/dcmitype/StillImage"/>
    <dc:date>2026-03-19T23:47:41.066067</dc:date>
    <dc:format>image/svg+xml</dc:format>
    <dc:creator>
     <cc:Agent>
      <dc:title>Matplotlib v3.10.1, https://matplotlib.org/</dc:title>
     </cc:Agent>
    </dc:creator>
   </cc:Work>
  </rdf:RDF>
 </metadata>
 <defs>
  <style type="text/css">*{stroke-linejoin: round; stroke-linecap: butt}</style>
 </defs>
 <g id="figure_1">
  <g id="patch_1">
   <path d="M -0 208.8 
L 429.020621 208.8 
L 429.020621 0 
L -0 0 
L -0 208.8 
z
" style="fill: none"/>
  </g>
  <g id="axes_1">
   <g id="patch_2">
    <path d="M 131.442187 201.6 
L 366.557902 201.6 
L 366.557902 7.2 
L 131.442187 7.2 
L 131.442187 201.6 
z
" style="fill: none"/>
   </g>
   <g id="patch_3">
    <path d="M 131.442187 16.036364 
L 355.361915 16.036364 
L 355.361915 31.052406 
L 131.442187 31.052406 
z
" clip-path="url(#pcde3a4bd0d)" style="fill: #c41e3a"/>
   </g>
   <g id="patch_4">
    <path d="M 131.442187 39.137968 
L 167.558273 39.137968 
L 167.558273 54.154011 
L 131.442187 54.154011 
z
" clip-path="url(#pcde3a4bd0d)" style="fill: #8a8478"/>
   </g>
   <g id="patch_5">
    <path d="M 131.442187 62.239572 
L 140.110048 62.239572 
L 140.110048 77.255615 
L 131.442187 77.255615 
z
" clip-path="url(#pcde3a4bd0d)" style="fill: #8a8478"/>
   </g>
   <g id="patch_6">
    <path d="M 131.442187 85.341176 
L 138.665405 85.341176 
L 138.665405 100.357219 
L 131.442187 100.357219 
z
" clip-path="url(#pcde3a4bd0d)" style="fill: #8a8478"/>
   </g>
   <g id="patch_7">
    <path d="M 131.442187 108.442781 
L 135.776118 108.442781 
L 135.776118 123.458824 
L 131.442187 123.458824 
z
" clip-path="url(#pcde3a4bd0d)" style="fill: #8a8478"/>
   </g>
   <g id="patch_8">
    <path d="M 131.442187 131.544385 
L 135.776118 131.544385 
L 135.776118 146.560428 
L 131.442187 146.560428 
z
" clip-path="url(#pcde3a4bd0d)" style="fill: #8a8478"/>
   </g>
   <g id="patch_9">
    <path d="M 131.442187 154.645989 
L 132.886831 154.645989 
L 132.886831 169.662032 
L 131.442187 169.662032 
z
" clip-path="url(#pcde3a4bd0d)" style="fill: #8a8478"/>
   </g>
   <g id="patch_10">
    <path d="M 131.442187 177.747594 
L 132.886831 177.747594 
L 132.886831 192.763636 
L 131.442187 192.763636 
z
" clip-path="url(#pcde3a4bd0d)" style="fill: #8a8478"/>
   </g>
   <g id="matplotlib.axis_1">
    <g id="xtick_1"/>
    <g id="xtick_2"/>
    <g id="xtick_3"/>
    <g id="xtick_4"/>
    <g id="xtick_5"/>
    <g id="xtick_6"/>
    <g id="xtick_7"/>
   </g>
   <g id="matplotlib.axis_2">
    <g id="ytick_1">
     <g id="line2d_1"/>
     <g id="text_1">
      <!-- FIZJOTERAPEUTA -->
      <g style="fill: #1a1a1a" transform="translate(32.757812 27.343604) scale(0.1 -0.1)">
       <defs>
        <path id="DejaVuSans-Bold-46" d="M 588 4666 
L 3834 4666 
L 3834 3756 
L 1791 3756 
L 1791 2888 
L 3713 2888 
L 3713 1978 
L 1791 1978 
L 1791 0 
L 588 0 
L 588 4666 
z
" transform="scale(0.015625)"/>
        <path id="DejaVuSans-Bold-49" d="M 588 4666 
L 1791 4666 
L 1791 0 
L 588 0 
L 588 4666 
z
" transform="scale(0.015625)"/>
        <path id="DejaVuSans-Bold-5a" d="M 359 4666 
L 4281 4666 
L 4281 3938 
L 1778 909 
L 4353 909 
L 4353 0 
L 288 0 
L 288 728 
L 2791 3756 
L 359 3756 
L 359 4666 
z
" transform="scale(0.015625)"/>
        <path id="DejaVuSans-Bold-4a" d="M 588 4666 
L 1791 4666 
L 1791 453 
Q 1791 -419 1317 -850 
Q 844 -1281 -116 -1281 
L -359 -1281 
L -359 -372 
L -172 -372 
Q 203 -372 395 -162 
Q 588 47 588 453 
L 588 4666 
z
" transform="scale(0.015625)"/>
        <path id="DejaVuSans-Bold-4f" d="M 2719 3878 
Q 2169 3878 1866 3472 
Q 1563 3066 1563 2328 
Q 1563 1594 1866 1187 
Q 2169 781 2719 781 
Q 3272 781 3575 1187 
Q 3878 1594 3878 2328 
Q 3878 3066 3575 3472 
Q 3272 3878 2719 3878 
z
M 2719 4750 
Q 3844 4750 4481 4106 
Q 5119 3463 5119 2328 
Q 5119 1197 4481 553 
Q 3844 -91 2719 -91 
Q 1597 -91 958 553 
Q 319 1197 319 2328 
Q 319 3463 958 4106 
Q 1597 4750 2719 4750 
z
" transform="scale(0.015625)"/>
        <path id="DejaVuSans-Bold-54" d="M 31 4666 
L 4331 4666 
L 4331 3756 
L 2784 3756 
L 2784 0 
L 1581 0 
L 1581 3756 
L 31 3756 
L 31 4666 
z
" transform="scale(0.015625)"/>
        <path id="DejaVuSans-Bold-45" d="M 588 4666 
L 3834 4666 
L 3834 3756 
L 1791 3756 
L 1791 2888 
L 3713 2888 
L 3713 1978 
L 1791 1978 
L 1791 909 
L 3903 909 
L 3903 0 
L 588 0 
L 588 4666 
z
" transform="scale(0.015625)"/>
        <path id="DejaVuSans-Bold-52" d="M 2297 2597 
Q 2675 2597 2839 2737 
Q 3003 2878 3003 3200 
Q 3003 3519 2839 3656 
Q 2675 3794 2297 3794 
L 1791 3794 
L 1791 2597 
L 2297 2597 
z
M 1791 1766 
L 1791 0 
L 588 0 
L 588 4666 
L 2425 4666 
Q 3347 4666 3776 4356 
Q 4206 4047 4206 3378 
Q 4206 2916 3982 2619 
Q 3759 2322 3309 2181 
Q 3556 2125 3751 1926 
Q 3947 1728 4147 1325 
L 4800 0 
L 3519 0 
L 2950 1159 
Q 2778 1509 2601 1637 
Q 2425 1766 2131 1766 
L 1791 1766 
z
" transform="scale(0.015625)"/>
        <path id="DejaVuSans-Bold-41" d="M 3419 850 
L 1538 850 
L 1241 0 
L 31 0 
L 1759 4666 
L 3194 4666 
L 4922 0 
L 3713 0 
L 3419 850 
z
M 1838 1716 
L 3116 1716 
L 2478 3572 
L 1838 1716 
z
" transform="scale(0.015625)"/>
        <path id="DejaVuSans-Bold-50" d="M 588 4666 
L 2584 4666 
Q 3475 4666 3951 4270 
Q 4428 3875 4428 3144 
Q 4428 2409 3951 2014 
Q 3475 1619 2584 1619 
L 1791 1619 
L 1791 0 
L 588 0 
L 588 4666 
z
M 1791 3794 
L 1791 2491 
L 2456 2491 
Q 2806 2491 2997 2661 
Q 3188 2831 3188 3144 
Q 3188 3456 2997 3625 
Q 2806 3794 2456 3794 
L 1791 3794 
z
" transform="scale(0.015625)"/>
        <path id="DejaVuSans-Bold-55" d="M 588 4666 
L 1791 4666 
L 1791 1869 
Q 1791 1291 1980 1042 
Q 2169 794 2597 794 
Q 3028 794 3217 1042 
Q 3406 1291 3406 1869 
L 3406 4666 
L 4609 4666 
L 4609 1869 
Q 4609 878 4112 393 
Q 3616 -91 2597 -91 
Q 1581 -91 1084 393 
Q 588 878 588 1869 
L 588 4666 
z
" transform="scale(0.015625)"/>
       </defs>
       <use xlink:href="#DejaVuSans-Bold-46"/>
       <use xlink:href="#DejaVuSans-Bold-49" transform="translate(68.310547 0)"/>
       <use xlink:href="#DejaVuSans-Bold-5a" transform="translate(105.517578 0)"/>
       <use xlink:href="#DejaVuSans-Bold-4a" transform="translate(178.027344 0)"/>
       <use xlink:href="#DejaVuSans-Bold-4f" transform="translate(215.234375 0)"/>
       <use xlink:href="#DejaVuSans-Bold-54" transform="translate(300.244141 0)"/>
       <use xlink:href="#DejaVuSans-Bold-45" transform="translate(368.457031 0)"/>
       <use xlink:href="#DejaVuSans-Bold-52" transform="translate(436.767578 0)"/>
       <use xlink:href="#DejaVuSans-Bold-41" transform="translate(513.769531 0)"/>
       <use xlink:href="#DejaVuSans-Bold-50" transform="translate(591.162109 0)"/>
       <use xlink:href="#DejaVuSans-Bold-45" transform="translate(664.453125 0)"/>
       <use xlink:href="#DejaVuSans-Bold-55" transform="translate(732.763672 0)"/>
       <use xlink:href="#DejaVuSans-Bold-54" transform="translate(813.964844 0)"/>
       <use xlink:href="#DejaVuSans-Bold-41" transform="translate(874.427734 0)"/>
      </g>
     </g>
    </g>
    <g id="ytick_2">
     <g id="line2d_2"/>
     <g id="text_2">
      <!-- OSTEOPATA -->
      <g style="fill: #1a1a1a" transform="translate(62.917187 50.445208) scale(0.1 -0.1)">
       <defs>
        <path id="DejaVuSans-Bold-53" d="M 3834 4519 
L 3834 3531 
Q 3450 3703 3084 3790 
Q 2719 3878 2394 3878 
Q 1963 3878 1756 3759 
Q 1550 3641 1550 3391 
Q 1550 3203 1689 3098 
Q 1828 2994 2194 2919 
L 2706 2816 
Q 3484 2659 3812 2340 
Q 4141 2022 4141 1434 
Q 4141 663 3683 286 
Q 3225 -91 2284 -91 
Q 1841 -91 1394 -6 
Q 947 78 500 244 
L 500 1259 
Q 947 1022 1364 901 
Q 1781 781 2169 781 
Q 2563 781 2772 912 
Q 2981 1044 2981 1288 
Q 2981 1506 2839 1625 
Q 2697 1744 2272 1838 
L 1806 1941 
Q 1106 2091 782 2419 
Q 459 2747 459 3303 
Q 459 4000 909 4375 
Q 1359 4750 2203 4750 
Q 2588 4750 2994 4692 
Q 3400 4634 3834 4519 
z
" transform="scale(0.015625)"/>
       </defs>
       <use xlink:href="#DejaVuSans-Bold-4f"/>
       <use xlink:href="#DejaVuSans-Bold-53" transform="translate(85.009766 0)"/>
       <use xlink:href="#DejaVuSans-Bold-54" transform="translate(157.03125 0)"/>
       <use xlink:href="#DejaVuSans-Bold-45" transform="translate(225.244141 0)"/>
       <use xlink:href="#DejaVuSans-Bold-4f" transform="translate(293.554688 0)"/>
       <use xlink:href="#DejaVuSans-Bold-50" transform="translate(378.564453 0)"/>
       <use xlink:href="#DejaVuSans-Bold-41" transform="translate(442.730469 0)"/>
       <use xlink:href="#DejaVuSans-Bold-54" transform="translate(512.373047 0)"/>
       <use xlink:href="#DejaVuSans-Bold-41" transform="translate(572.835938 0)"/>
      </g>
     </g>
    </g>
    <g id="ytick_3">
     <g id="line2d_3"/>
     <g id="text_3">
      <!-- TERAPEUTA SI -->
      <g style="fill: #1a1a1a" transform="translate(48.379687 73.546812) scale(0.1 -0.1)">
       <defs>
        <path id="DejaVuSans-Bold-20" transform="scale(0.015625)"/>
       </defs>
       <use xlink:href="#DejaVuSans-Bold-54"/>
       <use xlink:href="#DejaVuSans-Bold-45" transform="translate(68.212891 0)"/>
       <use xlink:href="#DejaVuSans-Bold-52" transform="translate(136.523438 0)"/>
       <use xlink:href="#DejaVuSans-Bold-41" transform="translate(213.525391 0)"/>
       <use xlink:href="#DejaVuSans-Bold-50" transform="translate(290.917969 0)"/>
       <use xlink:href="#DejaVuSans-Bold-45" transform="translate(364.208984 0)"/>
       <use xlink:href="#DejaVuSans-Bold-55" transform="translate(432.519531 0)"/>
       <use xlink:href="#DejaVuSans-Bold-54" transform="translate(513.720703 0)"/>
       <use xlink:href="#DejaVuSans-Bold-41" transform="translate(574.183594 0)"/>
       <use xlink:href="#DejaVuSans-Bold-20" transform="translate(651.576172 0)"/>
       <use xlink:href="#DejaVuSans-Bold-53" transform="translate(686.390625 0)"/>
       <use xlink:href="#DejaVuSans-Bold-49" transform="translate(758.412109 0)"/>
      </g>
     </g>
    </g>
    <g id="ytick_4">
     <g id="line2d_4"/>
     <g id="text_4">
      <!-- TRENER -->
      <g style="fill: #1a1a1a" transform="translate(83.689062 96.648417) scale(0.1 -0.1)">
       <defs>
        <path id="DejaVuSans-Bold-4e" d="M 588 4666 
L 1931 4666 
L 3628 1466 
L 3628 4666 
L 4769 4666 
L 4769 0 
L 3425 0 
L 1728 3200 
L 1728 0 
L 588 0 
L 588 4666 
z
" transform="scale(0.015625)"/>
       </defs>
       <use xlink:href="#DejaVuSans-Bold-54"/>
       <use xlink:href="#DejaVuSans-Bold-52" transform="translate(68.212891 0)"/>
       <use xlink:href="#DejaVuSans-Bold-45" transform="translate(145.214844 0)"/>
       <use xlink:href="#DejaVuSans-Bold-4e" transform="translate(213.525391 0)"/>
       <use xlink:href="#DejaVuSans-Bold-45" transform="translate(297.216797 0)"/>
       <use xlink:href="#DejaVuSans-Bold-52" transform="translate(365.527344 0)"/>
      </g>
     </g>
    </g>
    <g id="ytick_5">
     <g id="line2d_5"/>
     <g id="text_5">
      <!-- INNY -->
      <g style="fill: #1a1a1a" transform="translate(100.24375 119.750021) scale(0.1 -0.1)">
       <defs>
        <path id="DejaVuSans-Bold-59" d="M -63 4666 
L 1253 4666 
L 2316 3003 
L 3378 4666 
L 4697 4666 
L 2919 1966 
L 2919 0 
L 1716 0 
L 1716 1966 
L -63 4666 
z
" transform="scale(0.015625)"/>
       </defs>
       <use xlink:href="#DejaVuSans-Bold-49"/>
       <use xlink:href="#DejaVuSans-Bold-4e" transform="translate(37.207031 0)"/>
       <use xlink:href="#DejaVuSans-Bold-4e" transform="translate(120.898438 0)"/>
       <use xlink:href="#DejaVuSans-Bold-59" transform="translate(204.589844 0)"/>
      </g>
     </g>
    </g>
    <g id="ytick_6">
     <g id="line2d_6"/>
     <g id="text_6">
      <!-- MASAŻYSTA -->
      <g style="fill: #1a1a1a" transform="translate(59.83125 142.851625) scale(0.1 -0.1)">
       <defs>
        <path id="DejaVuSans-Bold-4d" d="M 588 4666 
L 2119 4666 
L 3181 2169 
L 4250 4666 
L 5778 4666 
L 5778 0 
L 4641 0 
L 4641 3413 
L 3566 897 
L 2803 897 
L 1728 3413 
L 1728 0 
L 588 0 
L 588 4666 
z
" transform="scale(0.015625)"/>
        <path id="DejaVuSans-Bold-17b" d="M 1828 5921 
L 2684 5921 
L 2684 5152 
L 1828 5152 
L 1828 5921 
z
M 359 4666 
L 4281 4666 
L 4281 3938 
L 1778 909 
L 4353 909 
L 4353 0 
L 288 0 
L 288 728 
L 2791 3756 
L 359 3756 
L 359 4666 
z
" transform="scale(0.015625)"/>
       </defs>
       <use xlink:href="#DejaVuSans-Bold-4d"/>
       <use xlink:href="#DejaVuSans-Bold-41" transform="translate(99.511719 0)"/>
       <use xlink:href="#DejaVuSans-Bold-53" transform="translate(176.904297 0)"/>
       <use xlink:href="#DejaVuSans-Bold-41" transform="translate(248.925781 0)"/>
       <use xlink:href="#DejaVuSans-Bold-17b" transform="translate(326.318359 0)"/>
       <use xlink:href="#DejaVuSans-Bold-59" transform="translate(398.828125 0)"/>
       <use xlink:href="#DejaVuSans-Bold-53" transform="translate(471.240234 0)"/>
       <use xlink:href="#DejaVuSans-Bold-54" transform="translate(543.261719 0)"/>
       <use xlink:href="#DejaVuSans-Bold-41" transform="translate(603.724609 0)"/>
      </g>
     </g>
    </g>
    <g id="ytick_7">
     <g id="line2d_7"/>
     <g id="text_7">
      <!-- LEKARZ -->
      <g style="fill: #1a1a1a" transform="translate(84.3 165.953229) scale(0.1 -0.1)">
       <defs>
        <path id="DejaVuSans-Bold-4c" d="M 588 4666 
L 1791 4666 
L 1791 909 
L 3903 909 
L 3903 0 
L 588 0 
L 588 4666 
z
" transform="scale(0.015625)"/>
        <path id="DejaVuSans-Bold-4b" d="M 588 4666 
L 1791 4666 
L 1791 2963 
L 3525 4666 
L 4922 4666 
L 2675 2456 
L 5153 0 
L 3647 0 
L 1791 1838 
L 1791 0 
L 588 0 
L 588 4666 
z
" transform="scale(0.015625)"/>
       </defs>
       <use xlink:href="#DejaVuSans-Bold-4c"/>
       <use xlink:href="#DejaVuSans-Bold-45" transform="translate(63.720703 0)"/>
       <use xlink:href="#DejaVuSans-Bold-4b" transform="translate(132.03125 0)"/>
       <use xlink:href="#DejaVuSans-Bold-41" transform="translate(209.521484 0)"/>
       <use xlink:href="#DejaVuSans-Bold-52" transform="translate(286.914062 0)"/>
       <use xlink:href="#DejaVuSans-Bold-5a" transform="translate(363.916016 0)"/>
      </g>
     </g>
    </g>
    <g id="ytick_8">
     <g id="line2d_8"/>
     <g id="text_8">
      <!-- PEDAGOG SPECJALNY -->
      <g style="fill: #1a1a1a" transform="translate(7.2 189.054834) scale(0.1 -0.1)">
       <defs>
        <path id="DejaVuSans-Bold-44" d="M 1791 3756 
L 1791 909 
L 2222 909 
Q 2959 909 3348 1275 
Q 3738 1641 3738 2338 
Q 3738 3031 3350 3393 
Q 2963 3756 2222 3756 
L 1791 3756 
z
M 588 4666 
L 1856 4666 
Q 2919 4666 3439 4514 
Q 3959 4363 4331 4000 
Q 4659 3684 4818 3271 
Q 4978 2859 4978 2338 
Q 4978 1809 4818 1395 
Q 4659 981 4331 666 
Q 3956 303 3431 151 
Q 2906 0 1856 0 
L 588 0 
L 588 4666 
z
" transform="scale(0.015625)"/>
        <path id="DejaVuSans-Bold-47" d="M 4781 347 
Q 4331 128 3847 18 
Q 3363 -91 2847 -91 
Q 1681 -91 1000 561 
Q 319 1213 319 2328 
Q 319 3456 1012 4103 
Q 1706 4750 2913 4750 
Q 3378 4750 3804 4662 
Q 4231 4575 4609 4403 
L 4609 3438 
Q 4219 3659 3833 3768 
Q 3447 3878 3059 3878 
Q 2341 3878 1952 3476 
Q 1563 3075 1563 2328 
Q 1563 1588 1938 1184 
Q 2313 781 3003 781 
Q 3191 781 3352 804 
Q 3513 828 3641 878 
L 3641 1784 
L 2906 1784 
L 2906 2591 
L 4781 2591 
L 4781 347 
z
" transform="scale(0.015625)"/>
        <path id="DejaVuSans-Bold-43" d="M 4288 256 
Q 3956 84 3597 -3 
Q 3238 -91 2847 -91 
Q 1681 -91 1000 561 
Q 319 1213 319 2328 
Q 319 3447 1000 4098 
Q 1681 4750 2847 4750 
Q 3238 4750 3597 4662 
Q 3956 4575 4288 4403 
L 4288 3438 
Q 3953 3666 3628 3772 
Q 3303 3878 2944 3878 
Q 2300 3878 1931 3465 
Q 1563 3053 1563 2328 
Q 1563 1606 1931 1193 
Q 2300 781 2944 781 
Q 3303 781 3628 887 
Q 3953 994 4288 1222 
L 4288 256 
z
" transform="scale(0.015625)"/>
       </defs>
       <use xlink:href="#DejaVuSans-Bold-50"/>
       <use xlink:href="#DejaVuSans-Bold-45" transform="translate(73.291016 0)"/>
       <use xlink:href="#DejaVuSans-Bold-44" transform="translate(141.601562 0)"/>
       <use xlink:href="#DejaVuSans-Bold-41" transform="translate(224.609375 0)"/>
       <use xlink:href="#DejaVuSans-Bold-47" transform="translate(302.001953 0)"/>
       <use xlink:href="#DejaVuSans-Bold-4f" transform="translate(384.082031 0)"/>
       <use xlink:href="#DejaVuSans-Bold-47" transform="translate(469.091797 0)"/>
       <use xlink:href="#DejaVuSans-Bold-20" transform="translate(551.171875 0)"/>
       <use xlink:href="#DejaVuSans-Bold-53" transform="translate(585.986328 0)"/>
       <use xlink:href="#DejaVuSans-Bold-50" transform="translate(658.007812 0)"/>
       <use xlink:href="#DejaVuSans-Bold-45" transform="translate(731.298828 0)"/>
       <use xlink:href="#DejaVuSans-Bold-43" transform="translate(799.609375 0)"/>
       <use xlink:href="#DejaVuSans-Bold-4a" transform="translate(872.998047 0)"/>
       <use xlink:href="#DejaVuSans-Bold-41" transform="translate(910.205078 0)"/>
       <use xlink:href="#DejaVuSans-Bold-4c" transform="translate(987.597656 0)"/>
       <use xlink:href="#DejaVuSans-Bold-4e" transform="translate(1051.318359 0)"/>
       <use xlink:href="#DejaVuSans-Bold-59" transform="translate(1135.009766 0)"/>
      </g>
     </g>
    </g>
   </g>
   <g id="patch_11">
    <path d="M 131.442187 201.6 
L 131.442187 7.2 
" style="fill: none; stroke: #8a8478; stroke-width: 0.8; stroke-linejoin: miter; stroke-linecap: square"/>
   </g>
   <g id="text_9">
    <!-- 155  (77.9%) -->
    <g style="fill: #1a1a1a" transform="translate(356.806559 26.30376) scale(0.1 -0.1)">
     <defs>
      <path id="DejaVuSans-31" d="M 794 531 
L 1825 531 
L 1825 4091 
L 703 3866 
L 703 4441 
L 1819 4666 
L 2450 4666 
L 2450 531 
L 3481 531 
L 3481 0 
L 794 0 
L 794 531 
z
" transform="scale(0.015625)"/>
      <path id="DejaVuSans-35" d="M 691 4666 
L 3169 4666 
L 3169 4134 
L 1269 4134 
L 1269 2991 
Q 1406 3038 1543 3061 
Q 1681 3084 1819 3084 
Q 2600 3084 3056 2656 
Q 3513 2228 3513 1497 
Q 3513 744 3044 326 
Q 2575 -91 1722 -91 
Q 1428 -91 1123 -41 
Q 819 9 494 109 
L 494 744 
Q 775 591 1075 516 
Q 1375 441 1709 441 
Q 2250 441 2565 725 
Q 2881 1009 2881 1497 
Q 2881 1984 2565 2268 
Q 2250 2553 1709 2553 
Q 1456 2553 1204 2497 
Q 953 2441 691 2322 
L 691 4666 
z
" transform="scale(0.015625)"/>
      <path id="DejaVuSans-20" transform="scale(0.015625)"/>
      <path id="DejaVuSans-28" d="M 1984 4856 
Q 1566 4138 1362 3434 
Q 1159 2731 1159 2009 
Q 1159 1288 1364 580 
Q 1569 -128 1984 -844 
L 1484 -844 
Q 1016 -109 783 600 
Q 550 1309 550 2009 
Q 550 2706 781 3412 
Q 1013 4119 1484 4856 
L 1984 4856 
z
" transform="scale(0.015625)"/>
      <path id="DejaVuSans-37" d="M 525 4666 
L 3525 4666 
L 3525 4397 
L 1831 0 
L 1172 0 
L 2766 4134 
L 525 4134 
L 525 4666 
z
" transform="scale(0.015625)"/>
      <path id="DejaVuSans-2e" d="M 684 794 
L 1344 794 
L 1344 0 
L 684 0 
L 684 794 
z
" transform="scale(0.015625)"/>
      <path id="DejaVuSans-39" d="M 703 97 
L 703 672 
Q 941 559 1184 500 
Q 1428 441 1663 441 
Q 2288 441 2617 861 
Q 2947 1281 2994 2138 
Q 2813 1869 2534 1725 
Q 2256 1581 1919 1581 
Q 1219 1581 811 2004 
Q 403 2428 403 3163 
Q 403 3881 828 4315 
Q 1253 4750 1959 4750 
Q 2769 4750 3195 4129 
Q 3622 3509 3622 2328 
Q 3622 1225 3098 567 
Q 2575 -91 1691 -91 
Q 1453 -91 1209 -44 
Q 966 3 703 97 
z
M 1959 2075 
Q 2384 2075 2632 2365 
Q 2881 2656 2881 3163 
Q 2881 3666 2632 3958 
Q 2384 4250 1959 4250 
Q 1534 4250 1286 3958 
Q 1038 3666 1038 3163 
Q 1038 2656 1286 2365 
Q 1534 2075 1959 2075 
z
" transform="scale(0.015625)"/>
      <path id="DejaVuSans-25" d="M 4653 2053 
Q 4381 2053 4226 1822 
Q 4072 1591 4072 1178 
Q 4072 772 4226 539 
Q 4381 306 4653 306 
Q 4919 306 5073 539 
Q 5228 772 5228 1178 
Q 5228 1588 5073 1820 
Q 4919 2053 4653 2053 
z
M 4653 2450 
Q 5147 2450 5437 2106 
Q 5728 1763 5728 1178 
Q 5728 594 5436 251 
Q 5144 -91 4653 -91 
Q 4153 -91 3862 251 
Q 3572 594 3572 1178 
Q 3572 1766 3864 2108 
Q 4156 2450 4653 2450 
z
M 1428 4353 
Q 1159 4353 1004 4120 
Q 850 3888 850 3481 
Q 850 3069 1003 2837 
Q 1156 2606 1428 2606 
Q 1700 2606 1854 2837 
Q 2009 3069 2009 3481 
Q 2009 3884 1853 4118 
Q 1697 4353 1428 4353 
z
M 4250 4750 
L 4750 4750 
L 1831 -91 
L 1331 -91 
L 4250 4750 
z
M 1428 4750 
Q 1922 4750 2215 4408 
Q 2509 4066 2509 3481 
Q 2509 2891 2217 2550 
Q 1925 2209 1428 2209 
Q 931 2209 642 2551 
Q 353 2894 353 3481 
Q 353 4063 643 4406 
Q 934 4750 1428 4750 
z
" transform="scale(0.015625)"/>
      <path id="DejaVuSans-29" d="M 513 4856 
L 1013 4856 
Q 1481 4119 1714 3412 
Q 1947 2706 1947 2009 
Q 1947 1309 1714 600 
Q 1481 -109 1013 -844 
L 513 -844 
Q 928 -128 1133 580 
Q 1338 1288 1338 2009 
Q 1338 2731 1133 3434 
Q 928 4138 513 4856 
z
" transform="scale(0.015625)"/>
     </defs>
     <use xlink:href="#DejaVuSans-31"/>
     <use xlink:href="#DejaVuSans-35" transform="translate(63.623047 0)"/>
     <use xlink:href="#DejaVuSans-35" transform="translate(127.246094 0)"/>
     <use xlink:href="#DejaVuSans-20" transform="translate(190.869141 0)"/>
     <use xlink:href="#DejaVuSans-20" transform="translate(222.65625 0)"/>
     <use xlink:href="#DejaVuSans-28" transform="translate(254.443359 0)"/>
     <use xlink:href="#DejaVuSans-37" transform="translate(293.457031 0)"/>
     <use xlink:href="#DejaVuSans-37" transform="translate(357.080078 0)"/>
     <use xlink:href="#DejaVuSans-2e" transform="translate(420.703125 0)"/>
     <use xlink:href="#DejaVuSans-39" transform="translate(452.490234 0)"/>
     <use xlink:href="#DejaVuSans-25" transform="translate(516.113281 0)"/>
     <use xlink:href="#DejaVuSans-29" transform="translate(611.132812 0)"/>
    </g>
   </g>
   <g id="text_10">
    <!-- 25  (12.6%) -->
    <g style="fill: #1a1a1a" transform="translate(169.002916 49.405364) scale(0.1 -0.1)">
     <defs>
      <path id="DejaVuSans-32" d="M 1228 531 
L 3431 531 
L 3431 0 
L 469 0 
L 469 531 
Q 828 903 1448 1529 
Q 2069 2156 2228 2338 
Q 2531 2678 2651 2914 
Q 2772 3150 2772 3378 
Q 2772 3750 2511 3984 
Q 2250 4219 1831 4219 
Q 1534 4219 1204 4116 
Q 875 4013 500 3803 
L 500 4441 
Q 881 4594 1212 4672 
Q 1544 4750 1819 4750 
Q 2544 4750 2975 4387 
Q 3406 4025 3406 3419 
Q 3406 3131 3298 2873 
Q 3191 2616 2906 2266 
Q 2828 2175 2409 1742 
Q 1991 1309 1228 531 
z
" transform="scale(0.015625)"/>
      <path id="DejaVuSans-36" d="M 2113 2584 
Q 1688 2584 1439 2293 
Q 1191 2003 1191 1497 
Q 1191 994 1439 701 
Q 1688 409 2113 409 
Q 2538 409 2786 701 
Q 3034 994 3034 1497 
Q 3034 2003 2786 2293 
Q 2538 2584 2113 2584 
z
M 3366 4563 
L 3366 3988 
Q 3128 4100 2886 4159 
Q 2644 4219 2406 4219 
Q 1781 4219 1451 3797 
Q 1122 3375 1075 2522 
Q 1259 2794 1537 2939 
Q 1816 3084 2150 3084 
Q 2853 3084 3261 2657 
Q 3669 2231 3669 1497 
Q 3669 778 3244 343 
Q 2819 -91 2113 -91 
Q 1303 -91 875 529 
Q 447 1150 447 2328 
Q 447 3434 972 4092 
Q 1497 4750 2381 4750 
Q 2619 4750 2861 4703 
Q 3103 4656 3366 4563 
z
" transform="scale(0.015625)"/>
     </defs>
     <use xlink:href="#DejaVuSans-32"/>
     <use xlink:href="#DejaVuSans-35" transform="translate(63.623047 0)"/>
     <use xlink:href="#DejaVuSans-20" transform="translate(127.246094 0)"/>
     <use xlink:href="#DejaVuSans-20" transform="translate(159.033203 0)"/>
     <use xlink:href="#DejaVuSans-28" transform="translate(190.820312 0)"/>
     <use xlink:href="#DejaVuSans-31" transform="translate(229.833984 0)"/>
     <use xlink:href="#DejaVuSans-32" transform="translate(293.457031 0)"/>
     <use xlink:href="#DejaVuSans-2e" transform="translate(357.080078 0)"/>
     <use xlink:href="#DejaVuSans-36" transform="translate(388.867188 0)"/>
     <use xlink:href="#DejaVuSans-25" transform="translate(452.490234 0)"/>
     <use xlink:href="#DejaVuSans-29" transform="translate(547.509766 0)"/>
    </g>
   </g>
   <g id="text_11">
    <!-- 6  (3.0%) -->
    <g style="fill: #1a1a1a" transform="translate(141.554691 72.506969) scale(0.1 -0.1)">
     <defs>
      <path id="DejaVuSans-33" d="M 2597 2516 
Q 3050 2419 3304 2112 
Q 3559 1806 3559 1356 
Q 3559 666 3084 287 
Q 2609 -91 1734 -91 
Q 1441 -91 1130 -33 
Q 819 25 488 141 
L 488 750 
Q 750 597 1062 519 
Q 1375 441 1716 441 
Q 2309 441 2620 675 
Q 2931 909 2931 1356 
Q 2931 1769 2642 2001 
Q 2353 2234 1838 2234 
L 1294 2234 
L 1294 2753 
L 1863 2753 
Q 2328 2753 2575 2939 
Q 2822 3125 2822 3475 
Q 2822 3834 2567 4026 
Q 2313 4219 1838 4219 
Q 1578 4219 1281 4162 
Q 984 4106 628 3988 
L 628 4550 
Q 988 4650 1302 4700 
Q 1616 4750 1894 4750 
Q 2613 4750 3031 4423 
Q 3450 4097 3450 3541 
Q 3450 3153 3228 2886 
Q 3006 2619 2597 2516 
z
" transform="scale(0.015625)"/>
      <path id="DejaVuSans-30" d="M 2034 4250 
Q 1547 4250 1301 3770 
Q 1056 3291 1056 2328 
Q 1056 1369 1301 889 
Q 1547 409 2034 409 
Q 2525 409 2770 889 
Q 3016 1369 3016 2328 
Q 3016 3291 2770 3770 
Q 2525 4250 2034 4250 
z
M 2034 4750 
Q 2819 4750 3233 4129 
Q 3647 3509 3647 2328 
Q 3647 1150 3233 529 
Q 2819 -91 2034 -91 
Q 1250 -91 836 529 
Q 422 1150 422 2328 
Q 422 3509 836 4129 
Q 1250 4750 2034 4750 
z
" transform="scale(0.015625)"/>
     </defs>
     <use xlink:href="#DejaVuSans-36"/>
     <use xlink:href="#DejaVuSans-20" transform="translate(63.623047 0)"/>
     <use xlink:href="#DejaVuSans-20" transform="translate(95.410156 0)"/>
     <use xlink:href="#DejaVuSans-28" transform="translate(127.197266 0)"/>
     <use xlink:href="#DejaVuSans-33" transform="translate(166.210938 0)"/>
     <use xlink:href="#DejaVuSans-2e" transform="translate(229.833984 0)"/>
     <use xlink:href="#DejaVuSans-30" transform="translate(261.621094 0)"/>
     <use xlink:href="#DejaVuSans-25" transform="translate(325.244141 0)"/>
     <use xlink:href="#DejaVuSans-29" transform="translate(420.263672 0)"/>
    </g>
   </g>
   <g id="text_12">
    <!-- 5  (2.5%) -->
    <g style="fill: #1a1a1a" transform="translate(140.110048 95.608573) scale(0.1 -0.1)">
     <use xlink:href="#DejaVuSans-35"/>
     <use xlink:href="#DejaVuSans-20" transform="translate(63.623047 0)"/>
     <use xlink:href="#DejaVuSans-20" transform="translate(95.410156 0)"/>
     <use xlink:href="#DejaVuSans-28" transform="translate(127.197266 0)"/>
     <use xlink:href="#DejaVuSans-32" transform="translate(166.210938 0)"/>
     <use xlink:href="#DejaVuSans-2e" transform="translate(229.833984 0)"/>
     <use xlink:href="#DejaVuSans-35" transform="translate(261.621094 0)"/>
     <use xlink:href="#DejaVuSans-25" transform="translate(325.244141 0)"/>
     <use xlink:href="#DejaVuSans-29" transform="translate(420.263672 0)"/>
    </g>
   </g>
   <g id="text_13">
    <!-- 3  (1.5%) -->
    <g style="fill: #1a1a1a" transform="translate(137.220761 118.710177) scale(0.1 -0.1)">
     <use xlink:href="#DejaVuSans-33"/>
     <use xlink:href="#DejaVuSans-20" transform="translate(63.623047 0)"/>
     <use xlink:href="#DejaVuSans-20" transform="translate(95.410156 0)"/>
     <use xlink:href="#DejaVuSans-28" transform="translate(127.197266 0)"/>
     <use xlink:href="#DejaVuSans-31" transform="translate(166.210938 0)"/>
     <use xlink:href="#DejaVuSans-2e" transform="translate(229.833984 0)"/>
     <use xlink:href="#DejaVuSans-35" transform="translate(261.621094 0)"/>
     <use xlink:href="#DejaVuSans-25" transform="translate(325.244141 0)"/>
     <use xlink:href="#DejaVuSans-29" transform="translate(420.263672 0)"/>
    </g>
   </g>
   <g id="text_14">
    <!-- 3  (1.5%) -->
    <g style="fill: #1a1a1a" transform="translate(137.220761 141.811781) scale(0.1 -0.1)">
     <use xlink:href="#DejaVuSans-33"/>
     <use xlink:href="#DejaVuSans-20" transform="translate(63.623047 0)"/>
     <use xlink:href="#DejaVuSans-20" transform="translate(95.410156 0)"/>
     <use xlink:href="#DejaVuSans-28" transform="translate(127.197266 0)"/>
     <use xlink:href="#DejaVuSans-31" transform="translate(166.210938 0)"/>
     <use xlink:href="#DejaVuSans-2e" transform="translate(229.833984 0)"/>
     <use xlink:href="#DejaVuSans-35" transform="translate(261.621094 0)"/>
     <use xlink:href="#DejaVuSans-25" transform="translate(325.244141 0)"/>
     <use xlink:href="#DejaVuSans-29" transform="translate(420.263672 0)"/>
    </g>
   </g>
   <g id="text_15">
    <!-- 1  (0.5%) -->
    <g style="fill: #1a1a1a" transform="translate(134.331474 164.913386) scale(0.1 -0.1)">
     <use xlink:href="#DejaVuSans-31"/>
     <use xlink:href="#DejaVuSans-20" transform="translate(63.623047 0)"/>
     <use xlink:href="#DejaVuSans-20" transform="translate(95.410156 0)"/>
     <use xlink:href="#DejaVuSans-28" transform="translate(127.197266 0)"/>
     <use xlink:href="#DejaVuSans-30" transform="translate(166.210938 0)"/>
     <use xlink:href="#DejaVuSans-2e" transform="translate(229.833984 0)"/>
     <use xlink:href="#DejaVuSans-35" transform="translate(261.621094 0)"/>
     <use xlink:href="#DejaVuSans-25" transform="translate(325.244141 0)"/>
     <use xlink:href="#DejaVuSans-29" transform="translate(420.263672 0)"/>
    </g>
   </g>
   <g id="text_16">
    <!-- 1  (0.5%) -->
    <g style="fill: #1a1a1a" transform="translate(134.331474 188.01499) scale(0.1 -0.1)">
     <use xlink:href="#DejaVuSans-31"/>
     <use xlink:href="#DejaVuSans-20" transform="translate(63.623047 0)"/>
     <use xlink:href="#DejaVuSans-20" transform="translate(95.410156 0)"/>
     <use xlink:href="#DejaVuSans-28" transform="translate(127.197266 0)"/>
     <use xlink:href="#DejaVuSans-30" transform="translate(166.210938 0)"/>
     <use xlink:href="#DejaVuSans-2e" transform="translate(229.833984 0)"/>
     <use xlink:href="#DejaVuSans-35" transform="translate(261.621094 0)"/>
     <use xlink:href="#DejaVuSans-25" transform="translate(325.244141 0)"/>
     <use xlink:href="#DejaVuSans-29" transform="translate(420.263672 0)"/>
    </g>
   </g>
  </g>
 </g>
 <defs>
  <clipPath id="pcde3a4bd0d">
   <rect x="131.442187" y="7.2" width="235.115714" height="194.4"/>
  </clipPath>
 </defs>
</svg>
